<svg xmlns="http://www.w3.org/2000/svg" xmlns:xlink="http://www.w3.org/1999/xlink" width="64" zoomAndPan="magnify" viewBox="0 0 48 48" height="64" preserveAspectRatio="xMidYMid meet" version="1.0"><defs><g/></defs><g fill="rgb(100%, 0%, 100%)" fill-opacity="1"><g transform="translate(5.395677, 43.075385)"><g/></g></g><g fill="rgb(0%, 100%, 100%)" fill-opacity="1"><g transform="translate(4.14769, 41.357678)"><g/></g></g><g fill="rgb(100%, 100%, 100%)" fill-opacity="1"><g transform="translate(4.771683, 42.216531)"><g/></g></g><g fill="rgb(100%, 0%, 100%)" fill-opacity="1"><g transform="translate(16.27833, 43.075385)"><g><path d="M 11.714844 -34.84375 L 0.433594 -34.84375 C 0.21875 -34.84375 0 -34.625 0 -34.449219 L 0 -28.441406 L 11.714844 -28.441406 C 12.5 -28.441406 16.855469 -28.222656 16.855469 -24.390625 C 16.855469 -20.558594 12.585938 -20.46875 11.714844 -20.46875 L 0 -20.46875 L 0 -0.390625 C 0 -0.21875 0.21875 0 0.433594 0 L 6.097656 0 C 6.402344 0 6.53125 -0.21875 6.53125 -0.390625 L 6.53125 -14.023438 L 11.714844 -14.023438 C 12.542969 -14.023438 23.476562 -14.15625 23.476562 -24.390625 C 23.476562 -34.625 13.109375 -34.84375 11.714844 -34.84375 Z M 11.714844 -34.84375 "/></g></g></g><g fill="rgb(0%, 100%, 100%)" fill-opacity="1"><g transform="translate(15.030342, 41.357678)"><g><path d="M 11.714844 -34.84375 L 0.433594 -34.84375 C 0.21875 -34.84375 0 -34.625 0 -34.449219 L 0 -28.441406 L 11.714844 -28.441406 C 12.5 -28.441406 16.855469 -28.222656 16.855469 -24.390625 C 16.855469 -20.558594 12.585938 -20.46875 11.714844 -20.46875 L 0 -20.46875 L 0 -0.390625 C 0 -0.21875 0.21875 0 0.433594 0 L 6.097656 0 C 6.402344 0 6.53125 -0.21875 6.53125 -0.390625 L 6.53125 -14.023438 L 11.714844 -14.023438 C 12.542969 -14.023438 23.476562 -14.15625 23.476562 -24.390625 C 23.476562 -34.625 13.109375 -34.84375 11.714844 -34.84375 Z M 11.714844 -34.84375 "/></g></g></g><g fill="rgb(100%, 100%, 100%)" fill-opacity="1"><g transform="translate(15.654336, 42.216531)"><g><path d="M 11.714844 -34.84375 L 0.433594 -34.84375 C 0.21875 -34.84375 0 -34.625 0 -34.449219 L 0 -28.441406 L 11.714844 -28.441406 C 12.5 -28.441406 16.855469 -28.222656 16.855469 -24.390625 C 16.855469 -20.558594 12.585938 -20.46875 11.714844 -20.46875 L 0 -20.46875 L 0 -0.390625 C 0 -0.21875 0.21875 0 0.433594 0 L 6.097656 0 C 6.402344 0 6.53125 -0.21875 6.53125 -0.390625 L 6.53125 -14.023438 L 11.714844 -14.023438 C 12.542969 -14.023438 23.476562 -14.15625 23.476562 -24.390625 C 23.476562 -34.625 13.109375 -34.84375 11.714844 -34.84375 Z M 11.714844 -34.84375 "/></g></g></g></svg>