<svg xmlns="http://www.w3.org/2000/svg" xmlns:xlink="http://www.w3.org/1999/xlink" width="64" zoomAndPan="magnify" viewBox="0 0 48 48" height="64" preserveAspectRatio="xMidYMid meet" version="1.0"><defs><g/></defs><g fill="#ff00ff" fill-opacity="1"><g transform="translate(2.623244, 43.177134)"><g><path d="M 12.769531 -37.976562 L 0.476562 -37.976562 C 0.238281 -37.976562 0 -37.738281 0 -37.546875 L 0 -30.996094 L 12.769531 -30.996094 C 13.625 -30.996094 18.371094 -30.757812 18.371094 -26.582031 C 18.371094 -22.40625 13.71875 -22.308594 12.769531 -22.308594 L 0 -22.308594 L 0 -0.425781 C 0 -0.238281 0.238281 0 0.476562 0 L 6.644531 0 C 6.976562 0 7.121094 -0.238281 7.121094 -0.425781 L 7.121094 -15.285156 L 12.769531 -15.285156 C 13.671875 -15.285156 25.585938 -15.425781 25.585938 -26.582031 C 25.585938 -37.738281 14.289062 -37.976562 12.769531 -37.976562 Z M 12.769531 -37.976562 "/></g></g></g><g fill="#00ffff" fill-opacity="1"><g transform="translate(1.26298, 41.304892)"><g><path d="M 12.769531 -37.976562 L 0.476562 -37.976562 C 0.238281 -37.976562 0 -37.738281 0 -37.546875 L 0 -30.996094 L 12.769531 -30.996094 C 13.625 -30.996094 18.371094 -30.757812 18.371094 -26.582031 C 18.371094 -22.40625 13.71875 -22.308594 12.769531 -22.308594 L 0 -22.308594 L 0 -0.425781 C 0 -0.238281 0.238281 0 0.476562 0 L 6.644531 0 C 6.976562 0 7.121094 -0.238281 7.121094 -0.425781 L 7.121094 -15.285156 L 12.769531 -15.285156 C 13.671875 -15.285156 25.585938 -15.425781 25.585938 -26.582031 C 25.585938 -37.738281 14.289062 -37.976562 12.769531 -37.976562 Z M 12.769531 -37.976562 "/></g></g></g><g fill="#ffffff" fill-opacity="1"><g transform="translate(1.943112, 42.241013)"><g><path d="M 12.769531 -37.976562 L 0.476562 -37.976562 C 0.238281 -37.976562 0 -37.738281 0 -37.546875 L 0 -30.996094 L 12.769531 -30.996094 C 13.625 -30.996094 18.371094 -30.757812 18.371094 -26.582031 C 18.371094 -22.40625 13.71875 -22.308594 12.769531 -22.308594 L 0 -22.308594 L 0 -0.425781 C 0 -0.238281 0.238281 0 0.476562 0 L 6.644531 0 C 6.976562 0 7.121094 -0.238281 7.121094 -0.425781 L 7.121094 -15.285156 L 12.769531 -15.285156 C 13.671875 -15.285156 25.585938 -15.425781 25.585938 -26.582031 C 25.585938 -37.738281 14.289062 -37.976562 12.769531 -37.976562 Z M 12.769531 -37.976562 "/></g></g></g><g fill="#ff00ff" fill-opacity="1"><g transform="translate(9.99237, 33.7312)"><g><path d="M 4.285156 -0.0820312 L 2.210938 -5.417969 C 2.191406 -5.472656 2.09375 -5.472656 2.074219 -5.417969 L 0.0078125 -0.0820312 C -0.0117188 -0.0390625 0.0117188 0 0.0742188 0 L 1.011719 0 C 1.039062 0 1.070312 -0.0117188 1.078125 -0.0390625 L 2.144531 -3.085938 L 3.222656 -0.0390625 C 3.230469 -0.0117188 3.261719 0 3.285156 0 L 4.226562 0 C 4.273438 0 4.308594 -0.0390625 4.285156 -0.0820312 Z M 4.285156 -0.0820312 "/></g></g></g><g fill="#ff00ff" fill-opacity="1"><g transform="translate(15.227841, 33.7312)"><g><path d="M 3.726562 -0.0898438 C 3.386719 -0.847656 3.015625 -1.597656 2.675781 -2.367188 C 3.222656 -2.566406 3.679688 -3.003906 3.679688 -3.835938 C 3.679688 -5.445312 2.144531 -5.460938 1.835938 -5.460938 L 0.0664062 -5.460938 C 0.0351562 -5.460938 0 -5.425781 0 -5.398438 L 0 -4.472656 L 1.835938 -4.472656 C 2 -4.472656 2.640625 -4.4375 2.640625 -3.835938 C 2.640625 -3.234375 2.0625 -3.207031 1.835938 -3.207031 L 0 -3.207031 L 0 -0.0625 C 0 -0.0351562 0.0351562 0 0.0664062 0 L 0.960938 0 C 1.003906 0 1.039062 -0.0351562 1.039062 -0.0625 L 1.039062 -2.203125 L 1.625 -2.203125 L 2.621094 -0.0390625 C 2.628906 -0.0195312 2.667969 0 2.6875 0 L 3.664062 0 C 3.71875 0 3.746094 -0.0390625 3.726562 -0.0898438 Z M 3.726562 -0.0898438 "/></g></g></g><g fill="#ff00ff" fill-opacity="1"><g transform="translate(19.883112, 33.7312)"><g><path d="M 2.226562 -0.933594 L 1.679688 -0.933594 L 1.679688 -5.460938 L 0.636719 -5.460938 L 0.636719 -0.933594 L 0.0742188 -0.933594 C 0.0351562 -0.933594 0 -0.90625 0 -0.875 L 0 -0.0625 C 0 -0.0351562 0.0351562 0 0.0742188 0 L 2.226562 0 C 2.273438 0 2.300781 -0.0351562 2.300781 -0.0625 L 2.300781 -0.875 C 2.300781 -0.90625 2.273438 -0.933594 2.226562 -0.933594 Z M 2.226562 -0.933594 "/></g></g></g><g fill="#ff00ff" fill-opacity="1"><g transform="translate(23.029853, 33.7312)"><g><path d="M 2.503906 -3.03125 C 2.117188 -3.214844 1.734375 -3.214844 1.699219 -3.214844 C 1.351562 -3.214844 1.015625 -3.417969 1.015625 -3.816406 C 1.015625 -4.253906 1.324219 -4.476562 1.699219 -4.476562 C 2.054688 -4.476562 2.355469 -4.292969 2.367188 -3.90625 C 2.367188 -3.882812 2.402344 -3.851562 2.445312 -3.851562 L 3.296875 -3.851562 C 3.34375 -3.851562 3.378906 -3.882812 3.371094 -3.90625 C 3.359375 -4.832031 2.636719 -5.460938 1.699219 -5.460938 C 0.824219 -5.460938 0 -4.839844 0 -3.816406 C 0 -3.179688 0.320312 -2.695312 0.886719 -2.4375 C 1.285156 -2.253906 1.652344 -2.253906 1.699219 -2.253906 C 2.007812 -2.238281 2.382812 -1.992188 2.382812 -1.589844 C 2.382812 -1.230469 2.0625 -0.984375 1.699219 -0.984375 C 1.699219 -0.984375 1.699219 -0.984375 1.691406 -0.984375 L 1.691406 0 C 1.699219 0 1.699219 0 1.699219 0 C 2.574219 0 3.390625 -0.566406 3.390625 -1.589844 C 3.390625 -2.230469 3.078125 -2.765625 2.503906 -3.03125 Z M 2.503906 -3.03125 "/></g></g></g><g fill="#ff00ff" fill-opacity="1"><g transform="translate(27.323343, 33.7312)"><g><path d="M 1.835938 -5.460938 L 0.0664062 -5.460938 C 0.0351562 -5.460938 0 -5.425781 0 -5.398438 L 0 -4.457031 L 1.835938 -4.457031 C 1.960938 -4.457031 2.640625 -4.421875 2.640625 -3.824219 C 2.640625 -3.222656 1.972656 -3.207031 1.835938 -3.207031 L 0 -3.207031 L 0 -0.0625 C 0 -0.0351562 0.0351562 0 0.0664062 0 L 0.957031 0 C 1.003906 0 1.023438 -0.0351562 1.023438 -0.0625 L 1.023438 -2.199219 L 1.835938 -2.199219 C 1.964844 -2.199219 3.679688 -2.21875 3.679688 -3.824219 C 3.679688 -5.425781 2.054688 -5.460938 1.835938 -5.460938 Z M 1.835938 -5.460938 "/></g></g></g><g fill="#ff00ff" fill-opacity="1"><g transform="translate(31.917179, 33.7312)"><g><path d="M 4.886719 -1.316406 L 5.925781 -1.316406 L 5.925781 -5.398438 C 5.925781 -5.425781 5.898438 -5.460938 5.851562 -5.460938 L 4.949219 -5.460938 C 4.921875 -5.460938 4.886719 -5.441406 4.875 -5.417969 L 3.011719 -1.417969 L 1.050781 -5.417969 C 1.042969 -5.441406 1.003906 -5.460938 0.984375 -5.460938 L 0.0664062 -5.460938 C 0.0195312 -5.460938 0 -5.425781 0 -5.398438 L 0 -0.0625 C 0 -0.0351562 0.0195312 0 0.0664062 0 L 0.96875 0 C 1.011719 0 1.042969 -0.0351562 1.042969 -0.0625 L 1.042969 -3.125 L 2.527344 -0.257812 C 2.53125 -0.238281 2.574219 -0.21875 2.59375 -0.21875 L 3.433594 -0.21875 C 3.453125 -0.21875 3.488281 -0.238281 3.496094 -0.257812 L 4.886719 -3.050781 Z M 4.886719 -1.316406 "/></g></g></g><g fill="#ff00ff" fill-opacity="1"><g transform="translate(38.872778, 33.7312)"><g><path d="M 2.636719 -2.738281 C 2.976562 -2.984375 3.1875 -3.433594 3.1875 -3.851562 C 3.1875 -4.914062 2.382812 -5.460938 1.589844 -5.460938 C 0.796875 -5.460938 0 -4.914062 0 -3.851562 C 0 -3.441406 0.21875 -3.011719 0.527344 -2.742188 C 0.226562 -2.484375 0 -2.027344 0 -1.617188 C 0 -0.539062 0.796875 0 1.589844 0 C 2.382812 0 3.1875 -0.539062 3.1875 -1.617188 C 3.1875 -2.027344 2.976562 -2.449219 2.636719 -2.738281 Z M 1.589844 -3.214844 C 1.242188 -3.214844 0.96875 -3.496094 0.96875 -3.851562 C 0.96875 -4.300781 1.277344 -4.527344 1.589844 -4.527344 C 1.898438 -4.527344 2.210938 -4.300781 2.210938 -3.851562 C 2.210938 -3.496094 1.933594 -3.214844 1.589844 -3.214844 Z M 1.589844 -0.957031 C 1.289062 -0.957031 0.996094 -1.175781 0.996094 -1.617188 C 0.996094 -1.960938 1.261719 -2.265625 1.589844 -2.265625 C 1.917969 -2.265625 2.183594 -1.960938 2.183594 -1.617188 C 2.183594 -1.175781 1.882812 -0.957031 1.589844 -0.957031 Z M 1.589844 -0.957031 "/></g></g></g><g fill="#ff00ff" fill-opacity="1"><g transform="translate(42.954669, 33.7312)"><g><path d="M 2.636719 -2.738281 C 2.976562 -2.984375 3.1875 -3.433594 3.1875 -3.851562 C 3.1875 -4.914062 2.382812 -5.460938 1.589844 -5.460938 C 0.796875 -5.460938 0 -4.914062 0 -3.851562 C 0 -3.441406 0.21875 -3.011719 0.527344 -2.742188 C 0.226562 -2.484375 0 -2.027344 0 -1.617188 C 0 -0.539062 0.796875 0 1.589844 0 C 2.382812 0 3.1875 -0.539062 3.1875 -1.617188 C 3.1875 -2.027344 2.976562 -2.449219 2.636719 -2.738281 Z M 1.589844 -3.214844 C 1.242188 -3.214844 0.96875 -3.496094 0.96875 -3.851562 C 0.96875 -4.300781 1.277344 -4.527344 1.589844 -4.527344 C 1.898438 -4.527344 2.210938 -4.300781 2.210938 -3.851562 C 2.210938 -3.496094 1.933594 -3.214844 1.589844 -3.214844 Z M 1.589844 -0.957031 C 1.289062 -0.957031 0.996094 -1.175781 0.996094 -1.617188 C 0.996094 -1.960938 1.261719 -2.265625 1.589844 -2.265625 C 1.917969 -2.265625 2.183594 -1.960938 2.183594 -1.617188 C 2.183594 -1.175781 1.882812 -0.957031 1.589844 -0.957031 Z M 1.589844 -0.957031 "/></g></g></g><g fill="#00ffff" fill-opacity="1"><g transform="translate(10.505661, 33.859179)"><g><path d="M 4.285156 -0.0820312 L 2.210938 -5.417969 C 2.191406 -5.472656 2.09375 -5.472656 2.074219 -5.417969 L 0.0078125 -0.0820312 C -0.0117188 -0.0390625 0.0117188 0 0.0742188 0 L 1.011719 0 C 1.039062 0 1.070312 -0.0117188 1.078125 -0.0390625 L 2.144531 -3.085938 L 3.222656 -0.0390625 C 3.230469 -0.0117188 3.261719 0 3.285156 0 L 4.226562 0 C 4.273438 0 4.308594 -0.0390625 4.285156 -0.0820312 Z M 4.285156 -0.0820312 "/></g></g></g><g fill="#00ffff" fill-opacity="1"><g transform="translate(15.741132, 33.859179)"><g><path d="M 3.726562 -0.0898438 C 3.386719 -0.847656 3.015625 -1.597656 2.675781 -2.367188 C 3.222656 -2.566406 3.679688 -3.003906 3.679688 -3.835938 C 3.679688 -5.445312 2.144531 -5.460938 1.835938 -5.460938 L 0.0664062 -5.460938 C 0.0351562 -5.460938 0 -5.425781 0 -5.398438 L 0 -4.472656 L 1.835938 -4.472656 C 2 -4.472656 2.640625 -4.4375 2.640625 -3.835938 C 2.640625 -3.234375 2.0625 -3.207031 1.835938 -3.207031 L 0 -3.207031 L 0 -0.0625 C 0 -0.0351562 0.0351562 0 0.0664062 0 L 0.960938 0 C 1.003906 0 1.039062 -0.0351562 1.039062 -0.0625 L 1.039062 -2.203125 L 1.625 -2.203125 L 2.621094 -0.0390625 C 2.628906 -0.0195312 2.667969 0 2.6875 0 L 3.664062 0 C 3.71875 0 3.746094 -0.0390625 3.726562 -0.0898438 Z M 3.726562 -0.0898438 "/></g></g></g><g fill="#00ffff" fill-opacity="1"><g transform="translate(20.396402, 33.859179)"><g><path d="M 2.226562 -0.933594 L 1.679688 -0.933594 L 1.679688 -5.460938 L 0.636719 -5.460938 L 0.636719 -0.933594 L 0.0742188 -0.933594 C 0.0351562 -0.933594 0 -0.90625 0 -0.875 L 0 -0.0625 C 0 -0.0351562 0.0351562 0 0.0742188 0 L 2.226562 0 C 2.273438 0 2.300781 -0.0351562 2.300781 -0.0625 L 2.300781 -0.875 C 2.300781 -0.90625 2.273438 -0.933594 2.226562 -0.933594 Z M 2.226562 -0.933594 "/></g></g></g><g fill="#00ffff" fill-opacity="1"><g transform="translate(23.543143, 33.859179)"><g><path d="M 2.503906 -3.03125 C 2.117188 -3.214844 1.734375 -3.214844 1.699219 -3.214844 C 1.351562 -3.214844 1.015625 -3.417969 1.015625 -3.816406 C 1.015625 -4.253906 1.324219 -4.476562 1.699219 -4.476562 C 2.054688 -4.476562 2.355469 -4.292969 2.367188 -3.90625 C 2.367188 -3.882812 2.402344 -3.851562 2.445312 -3.851562 L 3.296875 -3.851562 C 3.34375 -3.851562 3.378906 -3.882812 3.371094 -3.90625 C 3.359375 -4.832031 2.636719 -5.460938 1.699219 -5.460938 C 0.824219 -5.460938 0 -4.839844 0 -3.816406 C 0 -3.179688 0.320312 -2.695312 0.886719 -2.4375 C 1.285156 -2.253906 1.652344 -2.253906 1.699219 -2.253906 C 2.007812 -2.238281 2.382812 -1.992188 2.382812 -1.589844 C 2.382812 -1.230469 2.0625 -0.984375 1.699219 -0.984375 C 1.699219 -0.984375 1.699219 -0.984375 1.691406 -0.984375 L 1.691406 0 C 1.699219 0 1.699219 0 1.699219 0 C 2.574219 0 3.390625 -0.566406 3.390625 -1.589844 C 3.390625 -2.230469 3.078125 -2.765625 2.503906 -3.03125 Z M 2.503906 -3.03125 "/></g></g></g><g fill="#00ffff" fill-opacity="1"><g transform="translate(27.836633, 33.859179)"><g><path d="M 1.835938 -5.460938 L 0.0664062 -5.460938 C 0.0351562 -5.460938 0 -5.425781 0 -5.398438 L 0 -4.457031 L 1.835938 -4.457031 C 1.960938 -4.457031 2.640625 -4.421875 2.640625 -3.824219 C 2.640625 -3.222656 1.972656 -3.207031 1.835938 -3.207031 L 0 -3.207031 L 0 -0.0625 C 0 -0.0351562 0.0351562 0 0.0664062 0 L 0.957031 0 C 1.003906 0 1.023438 -0.0351562 1.023438 -0.0625 L 1.023438 -2.199219 L 1.835938 -2.199219 C 1.964844 -2.199219 3.679688 -2.21875 3.679688 -3.824219 C 3.679688 -5.425781 2.054688 -5.460938 1.835938 -5.460938 Z M 1.835938 -5.460938 "/></g></g></g><g fill="#00ffff" fill-opacity="1"><g transform="translate(32.430469, 33.859179)"><g><path d="M 4.886719 -1.316406 L 5.925781 -1.316406 L 5.925781 -5.398438 C 5.925781 -5.425781 5.898438 -5.460938 5.851562 -5.460938 L 4.949219 -5.460938 C 4.921875 -5.460938 4.886719 -5.441406 4.875 -5.417969 L 3.011719 -1.417969 L 1.050781 -5.417969 C 1.042969 -5.441406 1.003906 -5.460938 0.984375 -5.460938 L 0.0664062 -5.460938 C 0.0195312 -5.460938 0 -5.425781 0 -5.398438 L 0 -0.0625 C 0 -0.0351562 0.0195312 0 0.0664062 0 L 0.96875 0 C 1.011719 0 1.042969 -0.0351562 1.042969 -0.0625 L 1.042969 -3.125 L 2.527344 -0.257812 C 2.53125 -0.238281 2.574219 -0.21875 2.59375 -0.21875 L 3.433594 -0.21875 C 3.453125 -0.21875 3.488281 -0.238281 3.496094 -0.257812 L 4.886719 -3.050781 Z M 4.886719 -1.316406 "/></g></g></g><g fill="#00ffff" fill-opacity="1"><g transform="translate(39.386068, 33.859179)"><g><path d="M 2.636719 -2.738281 C 2.976562 -2.984375 3.1875 -3.433594 3.1875 -3.851562 C 3.1875 -4.914062 2.382812 -5.460938 1.589844 -5.460938 C 0.796875 -5.460938 0 -4.914062 0 -3.851562 C 0 -3.441406 0.21875 -3.011719 0.527344 -2.742188 C 0.226562 -2.484375 0 -2.027344 0 -1.617188 C 0 -0.539062 0.796875 0 1.589844 0 C 2.382812 0 3.1875 -0.539062 3.1875 -1.617188 C 3.1875 -2.027344 2.976562 -2.449219 2.636719 -2.738281 Z M 1.589844 -3.214844 C 1.242188 -3.214844 0.96875 -3.496094 0.96875 -3.851562 C 0.96875 -4.300781 1.277344 -4.527344 1.589844 -4.527344 C 1.898438 -4.527344 2.210938 -4.300781 2.210938 -3.851562 C 2.210938 -3.496094 1.933594 -3.214844 1.589844 -3.214844 Z M 1.589844 -0.957031 C 1.289062 -0.957031 0.996094 -1.175781 0.996094 -1.617188 C 0.996094 -1.960938 1.261719 -2.265625 1.589844 -2.265625 C 1.917969 -2.265625 2.183594 -1.960938 2.183594 -1.617188 C 2.183594 -1.175781 1.882812 -0.957031 1.589844 -0.957031 Z M 1.589844 -0.957031 "/></g></g></g><g fill="#00ffff" fill-opacity="1"><g transform="translate(43.467959, 33.859179)"><g><path d="M 2.636719 -2.738281 C 2.976562 -2.984375 3.1875 -3.433594 3.1875 -3.851562 C 3.1875 -4.914062 2.382812 -5.460938 1.589844 -5.460938 C 0.796875 -5.460938 0 -4.914062 0 -3.851562 C 0 -3.441406 0.21875 -3.011719 0.527344 -2.742188 C 0.226562 -2.484375 0 -2.027344 0 -1.617188 C 0 -0.539062 0.796875 0 1.589844 0 C 2.382812 0 3.1875 -0.539062 3.1875 -1.617188 C 3.1875 -2.027344 2.976562 -2.449219 2.636719 -2.738281 Z M 1.589844 -3.214844 C 1.242188 -3.214844 0.96875 -3.496094 0.96875 -3.851562 C 0.96875 -4.300781 1.277344 -4.527344 1.589844 -4.527344 C 1.898438 -4.527344 2.210938 -4.300781 2.210938 -3.851562 C 2.210938 -3.496094 1.933594 -3.214844 1.589844 -3.214844 Z M 1.589844 -0.957031 C 1.289062 -0.957031 0.996094 -1.175781 0.996094 -1.617188 C 0.996094 -1.960938 1.261719 -2.265625 1.589844 -2.265625 C 1.917969 -2.265625 2.183594 -1.960938 2.183594 -1.617188 C 2.183594 -1.175781 1.882812 -0.957031 1.589844 -0.957031 Z M 1.589844 -0.957031 "/></g></g></g><g fill="#ffffff" fill-opacity="1"><g transform="translate(10.249015, 33.79519)"><g><path d="M 4.285156 -0.0820312 L 2.210938 -5.417969 C 2.191406 -5.472656 2.09375 -5.472656 2.074219 -5.417969 L 0.0078125 -0.0820312 C -0.0117188 -0.0390625 0.0117188 0 0.0742188 0 L 1.011719 0 C 1.039062 0 1.070312 -0.0117188 1.078125 -0.0390625 L 2.144531 -3.085938 L 3.222656 -0.0390625 C 3.230469 -0.0117188 3.261719 0 3.285156 0 L 4.226562 0 C 4.273438 0 4.308594 -0.0390625 4.285156 -0.0820312 Z M 4.285156 -0.0820312 "/></g></g></g><g fill="#ffffff" fill-opacity="1"><g transform="translate(15.484487, 33.79519)"><g><path d="M 3.726562 -0.0898438 C 3.386719 -0.847656 3.015625 -1.597656 2.675781 -2.367188 C 3.222656 -2.566406 3.679688 -3.003906 3.679688 -3.835938 C 3.679688 -5.445312 2.144531 -5.460938 1.835938 -5.460938 L 0.0664062 -5.460938 C 0.0351562 -5.460938 0 -5.425781 0 -5.398438 L 0 -4.472656 L 1.835938 -4.472656 C 2 -4.472656 2.640625 -4.4375 2.640625 -3.835938 C 2.640625 -3.234375 2.0625 -3.207031 1.835938 -3.207031 L 0 -3.207031 L 0 -0.0625 C 0 -0.0351562 0.0351562 0 0.0664062 0 L 0.960938 0 C 1.003906 0 1.039062 -0.0351562 1.039062 -0.0625 L 1.039062 -2.203125 L 1.625 -2.203125 L 2.621094 -0.0390625 C 2.628906 -0.0195312 2.667969 0 2.6875 0 L 3.664062 0 C 3.71875 0 3.746094 -0.0390625 3.726562 -0.0898438 Z M 3.726562 -0.0898438 "/></g></g></g><g fill="#ffffff" fill-opacity="1"><g transform="translate(20.139757, 33.79519)"><g><path d="M 2.226562 -0.933594 L 1.679688 -0.933594 L 1.679688 -5.460938 L 0.636719 -5.460938 L 0.636719 -0.933594 L 0.0742188 -0.933594 C 0.0351562 -0.933594 0 -0.90625 0 -0.875 L 0 -0.0625 C 0 -0.0351562 0.0351562 0 0.0742188 0 L 2.226562 0 C 2.273438 0 2.300781 -0.0351562 2.300781 -0.0625 L 2.300781 -0.875 C 2.300781 -0.90625 2.273438 -0.933594 2.226562 -0.933594 Z M 2.226562 -0.933594 "/></g></g></g><g fill="#ffffff" fill-opacity="1"><g transform="translate(23.286498, 33.79519)"><g><path d="M 2.503906 -3.03125 C 2.117188 -3.214844 1.734375 -3.214844 1.699219 -3.214844 C 1.351562 -3.214844 1.015625 -3.417969 1.015625 -3.816406 C 1.015625 -4.253906 1.324219 -4.476562 1.699219 -4.476562 C 2.054688 -4.476562 2.355469 -4.292969 2.367188 -3.90625 C 2.367188 -3.882812 2.402344 -3.851562 2.445312 -3.851562 L 3.296875 -3.851562 C 3.34375 -3.851562 3.378906 -3.882812 3.371094 -3.90625 C 3.359375 -4.832031 2.636719 -5.460938 1.699219 -5.460938 C 0.824219 -5.460938 0 -4.839844 0 -3.816406 C 0 -3.179688 0.320312 -2.695312 0.886719 -2.4375 C 1.285156 -2.253906 1.652344 -2.253906 1.699219 -2.253906 C 2.007812 -2.238281 2.382812 -1.992188 2.382812 -1.589844 C 2.382812 -1.230469 2.0625 -0.984375 1.699219 -0.984375 C 1.699219 -0.984375 1.699219 -0.984375 1.691406 -0.984375 L 1.691406 0 C 1.699219 0 1.699219 0 1.699219 0 C 2.574219 0 3.390625 -0.566406 3.390625 -1.589844 C 3.390625 -2.230469 3.078125 -2.765625 2.503906 -3.03125 Z M 2.503906 -3.03125 "/></g></g></g><g fill="#ffffff" fill-opacity="1"><g transform="translate(27.579988, 33.79519)"><g><path d="M 1.835938 -5.460938 L 0.0664062 -5.460938 C 0.0351562 -5.460938 0 -5.425781 0 -5.398438 L 0 -4.457031 L 1.835938 -4.457031 C 1.960938 -4.457031 2.640625 -4.421875 2.640625 -3.824219 C 2.640625 -3.222656 1.972656 -3.207031 1.835938 -3.207031 L 0 -3.207031 L 0 -0.0625 C 0 -0.0351562 0.0351562 0 0.0664062 0 L 0.957031 0 C 1.003906 0 1.023438 -0.0351562 1.023438 -0.0625 L 1.023438 -2.199219 L 1.835938 -2.199219 C 1.964844 -2.199219 3.679688 -2.21875 3.679688 -3.824219 C 3.679688 -5.425781 2.054688 -5.460938 1.835938 -5.460938 Z M 1.835938 -5.460938 "/></g></g></g><g fill="#ffffff" fill-opacity="1"><g transform="translate(32.173824, 33.79519)"><g><path d="M 4.886719 -1.316406 L 5.925781 -1.316406 L 5.925781 -5.398438 C 5.925781 -5.425781 5.898438 -5.460938 5.851562 -5.460938 L 4.949219 -5.460938 C 4.921875 -5.460938 4.886719 -5.441406 4.875 -5.417969 L 3.011719 -1.417969 L 1.050781 -5.417969 C 1.042969 -5.441406 1.003906 -5.460938 0.984375 -5.460938 L 0.0664062 -5.460938 C 0.0195312 -5.460938 0 -5.425781 0 -5.398438 L 0 -0.0625 C 0 -0.0351562 0.0195312 0 0.0664062 0 L 0.96875 0 C 1.011719 0 1.042969 -0.0351562 1.042969 -0.0625 L 1.042969 -3.125 L 2.527344 -0.257812 C 2.53125 -0.238281 2.574219 -0.21875 2.59375 -0.21875 L 3.433594 -0.21875 C 3.453125 -0.21875 3.488281 -0.238281 3.496094 -0.257812 L 4.886719 -3.050781 Z M 4.886719 -1.316406 "/></g></g></g><g fill="#ffffff" fill-opacity="1"><g transform="translate(39.129423, 33.79519)"><g><path d="M 2.636719 -2.738281 C 2.976562 -2.984375 3.1875 -3.433594 3.1875 -3.851562 C 3.1875 -4.914062 2.382812 -5.460938 1.589844 -5.460938 C 0.796875 -5.460938 0 -4.914062 0 -3.851562 C 0 -3.441406 0.21875 -3.011719 0.527344 -2.742188 C 0.226562 -2.484375 0 -2.027344 0 -1.617188 C 0 -0.539062 0.796875 0 1.589844 0 C 2.382812 0 3.1875 -0.539062 3.1875 -1.617188 C 3.1875 -2.027344 2.976562 -2.449219 2.636719 -2.738281 Z M 1.589844 -3.214844 C 1.242188 -3.214844 0.96875 -3.496094 0.96875 -3.851562 C 0.96875 -4.300781 1.277344 -4.527344 1.589844 -4.527344 C 1.898438 -4.527344 2.210938 -4.300781 2.210938 -3.851562 C 2.210938 -3.496094 1.933594 -3.214844 1.589844 -3.214844 Z M 1.589844 -0.957031 C 1.289062 -0.957031 0.996094 -1.175781 0.996094 -1.617188 C 0.996094 -1.960938 1.261719 -2.265625 1.589844 -2.265625 C 1.917969 -2.265625 2.183594 -1.960938 2.183594 -1.617188 C 2.183594 -1.175781 1.882812 -0.957031 1.589844 -0.957031 Z M 1.589844 -0.957031 "/></g></g></g><g fill="#ffffff" fill-opacity="1"><g transform="translate(43.211314, 33.79519)"><g><path d="M 2.636719 -2.738281 C 2.976562 -2.984375 3.1875 -3.433594 3.1875 -3.851562 C 3.1875 -4.914062 2.382812 -5.460938 1.589844 -5.460938 C 0.796875 -5.460938 0 -4.914062 0 -3.851562 C 0 -3.441406 0.21875 -3.011719 0.527344 -2.742188 C 0.226562 -2.484375 0 -2.027344 0 -1.617188 C 0 -0.539062 0.796875 0 1.589844 0 C 2.382812 0 3.1875 -0.539062 3.1875 -1.617188 C 3.1875 -2.027344 2.976562 -2.449219 2.636719 -2.738281 Z M 1.589844 -3.214844 C 1.242188 -3.214844 0.96875 -3.496094 0.96875 -3.851562 C 0.96875 -4.300781 1.277344 -4.527344 1.589844 -4.527344 C 1.898438 -4.527344 2.210938 -4.300781 2.210938 -3.851562 C 2.210938 -3.496094 1.933594 -3.214844 1.589844 -3.214844 Z M 1.589844 -0.957031 C 1.289062 -0.957031 0.996094 -1.175781 0.996094 -1.617188 C 0.996094 -1.960938 1.261719 -2.265625 1.589844 -2.265625 C 1.917969 -2.265625 2.183594 -1.960938 2.183594 -1.617188 C 2.183594 -1.175781 1.882812 -0.957031 1.589844 -0.957031 Z M 1.589844 -0.957031 "/></g></g></g></svg>