<svg xmlns="http://www.w3.org/2000/svg" xmlns:xlink="http://www.w3.org/1999/xlink" width="512" zoomAndPan="magnify"
    viewBox="0 0 256 37" height="80" preserveAspectRatio="xMidYMin meet" version="1.0">
    <defs>
        <g />
        <clipPath id="id1">
            <path d="M 0.988281 23 L 77 23 L 77 32 L 0.988281 32 Z M 0.988281 23 " clip-rule="nonzero" />
        </clipPath>
    </defs>
    <g fill="#ffffff" fill-opacity="0.4">
        <g transform="translate(1.00193, 23.169069)">
            <g>
                <path
                    d="M 7.695312 -22.890625 L 0.285156 -22.890625 C 0.144531 -22.890625 0 -22.746094 0 -22.632812 L 0 -18.683594 L 7.695312 -18.683594 C 8.210938 -18.683594 11.074219 -18.542969 11.074219 -16.023438 C 11.074219 -13.503906 8.269531 -13.449219 7.695312 -13.449219 L 0 -13.449219 L 0 -0.257812 C 0 -0.144531 0.144531 0 0.285156 0 L 4.007812 0 C 4.207031 0 4.292969 -0.144531 4.292969 -0.257812 L 4.292969 -9.214844 L 7.695312 -9.214844 C 8.242188 -9.214844 15.421875 -9.300781 15.421875 -16.023438 C 15.421875 -22.746094 8.613281 -22.890625 7.695312 -22.890625 Z M 7.695312 -22.890625 " />
            </g>
        </g>
    </g>
    <g fill="#ffffff" fill-opacity="0.4">
        <g transform="translate(17.195583, 23.169069)">
            <g>
                <path
                    d="M 17.96875 -0.34375 L 9.269531 -22.71875 C 9.183594 -22.949219 8.785156 -22.949219 8.699219 -22.71875 L 0.0273438 -0.34375 C -0.0585938 -0.171875 0.0585938 0 0.316406 0 L 4.234375 0 C 4.347656 0 4.492188 -0.0585938 4.519531 -0.171875 L 8.984375 -12.933594 L 13.503906 -0.171875 C 13.535156 -0.0585938 13.675781 0 13.761719 0 L 17.710938 0 C 17.910156 0 18.054688 -0.171875 17.96875 -0.34375 Z M 17.96875 -0.34375 " />
            </g>
        </g>
    </g>
    <g fill="#ffffff" fill-opacity="0.4">
        <g transform="translate(36.07865, 23.169069)">
            <g>
                <path
                    d="M 15.621094 -0.371094 C 14.191406 -3.546875 12.648438 -6.695312 11.214844 -9.929688 C 13.503906 -10.757812 15.421875 -12.589844 15.421875 -16.082031 C 15.421875 -22.832031 8.984375 -22.890625 7.695312 -22.890625 L 0.285156 -22.890625 C 0.144531 -22.890625 0 -22.746094 0 -22.632812 L 0 -18.742188 L 7.695312 -18.742188 C 8.382812 -18.742188 11.074219 -18.597656 11.074219 -16.082031 C 11.074219 -13.5625 8.640625 -13.449219 7.695312 -13.449219 L 0 -13.449219 L 0 -0.257812 C 0 -0.144531 0.144531 0 0.285156 0 L 4.035156 0 C 4.207031 0 4.347656 -0.144531 4.347656 -0.257812 L 4.347656 -9.242188 L 6.808594 -9.242188 L 10.988281 -0.171875 C 11.015625 -0.0859375 11.1875 0 11.273438 0 L 15.367188 0 C 15.59375 0 15.707031 -0.171875 15.621094 -0.371094 Z M 15.621094 -0.371094 " />
            </g>
        </g>
    </g>
    <g fill="#ffffff" fill-opacity="0.4">
        <g transform="translate(52.529807, 23.169069)">
            <g>
                <path
                    d="M 9.328125 -3.921875 L 7.039062 -3.921875 L 7.039062 -22.890625 L 2.660156 -22.890625 L 2.660156 -3.921875 L 0.316406 -3.921875 C 0.144531 -3.921875 0 -3.804688 0 -3.664062 L 0 -0.257812 C 0 -0.144531 0.144531 0 0.316406 0 L 9.328125 0 C 9.527344 0 9.644531 -0.144531 9.644531 -0.257812 L 9.644531 -3.664062 C 9.644531 -3.804688 9.527344 -3.921875 9.328125 -3.921875 Z M 9.328125 -3.921875 " />
            </g>
        </g>
    </g>
    <g fill="#ffffff" fill-opacity="0.4">
        <g transform="translate(62.657997, 23.169069)">
            <g>
                <path
                    d="M 10.5 -12.703125 C 8.871094 -13.476562 7.269531 -13.476562 7.125 -13.476562 C 5.664062 -13.476562 4.261719 -14.335938 4.261719 -15.996094 C 4.261719 -17.828125 5.550781 -18.769531 7.125 -18.769531 C 8.613281 -18.769531 9.871094 -17.996094 9.929688 -16.367188 C 9.929688 -16.28125 10.070312 -16.136719 10.242188 -16.136719 L 13.820312 -16.136719 C 14.019531 -16.136719 14.164062 -16.28125 14.136719 -16.367188 C 14.078125 -20.257812 11.042969 -22.890625 7.125 -22.890625 C 3.460938 -22.890625 0 -20.285156 0 -15.996094 C 0 -13.332031 1.34375 -11.300781 3.71875 -10.214844 C 5.378906 -9.441406 6.925781 -9.441406 7.125 -9.441406 C 8.414062 -9.386719 9.984375 -8.355469 9.984375 -6.667969 C 9.984375 -5.152344 8.640625 -4.121094 7.125 -4.121094 C 7.125 -4.121094 7.125 -4.121094 7.097656 -4.121094 L 7.097656 0 C 7.125 0 7.125 0 7.125 0 C 10.789062 0 14.222656 -2.375 14.222656 -6.667969 C 14.222656 -9.355469 12.90625 -11.589844 10.5 -12.703125 Z M 10.5 -12.703125 " />
            </g>
        </g>
    </g>
    <g fill="#ffffff" fill-opacity="0.4">
        <g transform="translate(77.592784, 23.169069)">
            <g>
                <path
                    d="M 7.695312 -22.890625 L 0.285156 -22.890625 C 0.144531 -22.890625 0 -22.746094 0 -22.632812 L 0 -18.683594 L 7.695312 -18.683594 C 8.210938 -18.683594 11.074219 -18.542969 11.074219 -16.023438 C 11.074219 -13.503906 8.269531 -13.449219 7.695312 -13.449219 L 0 -13.449219 L 0 -0.257812 C 0 -0.144531 0.144531 0 0.285156 0 L 4.007812 0 C 4.207031 0 4.292969 -0.144531 4.292969 -0.257812 L 4.292969 -9.214844 L 7.695312 -9.214844 C 8.242188 -9.214844 15.421875 -9.300781 15.421875 -16.023438 C 15.421875 -22.746094 8.613281 -22.890625 7.695312 -22.890625 Z M 7.695312 -22.890625 " />
            </g>
        </g>
    </g>
    <g fill="#ffffff" fill-opacity="0.4">
        <g transform="translate(93.786437, 23.169069)">
            <g>
                <path
                    d="M 20.488281 -5.523438 L 24.835938 -5.523438 L 24.835938 -22.632812 C 24.835938 -22.746094 24.722656 -22.890625 24.523438 -22.890625 L 20.746094 -22.890625 C 20.628906 -22.890625 20.488281 -22.804688 20.429688 -22.71875 L 12.617188 -5.953125 L 4.40625 -22.71875 C 4.378906 -22.804688 4.207031 -22.890625 4.121094 -22.890625 L 0.285156 -22.890625 C 0.0859375 -22.890625 0 -22.746094 0 -22.632812 L 0 -0.257812 C 0 -0.144531 0.0859375 0 0.285156 0 L 4.0625 0 C 4.234375 0 4.378906 -0.144531 4.378906 -0.257812 L 4.378906 -13.105469 L 10.585938 -1.085938 C 10.617188 -1 10.789062 -0.914062 10.875 -0.914062 L 14.394531 -0.914062 C 14.476562 -0.914062 14.621094 -1 14.648438 -1.085938 L 20.488281 -12.789062 Z M 20.488281 -5.523438 " />
            </g>
        </g>
    </g>
    <g fill="#ffffff" fill-opacity="0.4">
        <g transform="translate(119.879394, 23.169069)">
            <g>
                <path
                    d="M 11.042969 -11.472656 C 12.476562 -12.503906 13.363281 -14.394531 13.363281 -16.136719 C 13.363281 -20.601562 9.984375 -22.890625 6.667969 -22.890625 C 3.347656 -22.890625 0 -20.601562 0 -16.136719 C 0 -14.421875 0.914062 -12.617188 2.203125 -11.503906 C 0.945312 -10.414062 0 -8.5 0 -6.78125 C 0 -2.261719 3.347656 0 6.667969 0 C 9.984375 0 13.363281 -2.261719 13.363281 -6.78125 C 13.363281 -8.5 12.476562 -10.273438 11.042969 -11.472656 Z M 6.667969 -13.476562 C 5.207031 -13.476562 4.0625 -14.648438 4.0625 -16.136719 C 4.0625 -18.027344 5.351562 -18.972656 6.667969 -18.972656 C 7.953125 -18.972656 9.269531 -18.027344 9.269531 -16.136719 C 9.269531 -14.648438 8.097656 -13.476562 6.667969 -13.476562 Z M 6.667969 -4.007812 C 5.40625 -4.007812 4.175781 -4.921875 4.175781 -6.78125 C 4.175781 -8.210938 5.292969 -9.5 6.667969 -9.5 C 8.039062 -9.5 9.15625 -8.210938 9.15625 -6.78125 C 9.15625 -4.921875 7.898438 -4.007812 6.667969 -4.007812 Z M 6.667969 -4.007812 " />
            </g>
        </g>
    </g>
    <g fill="#ffffff" fill-opacity="0.4">
        <g transform="translate(133.927246, 23.169069)">
            <g>
                <path
                    d="M 11.042969 -11.472656 C 12.476562 -12.503906 13.363281 -14.394531 13.363281 -16.136719 C 13.363281 -20.601562 9.984375 -22.890625 6.667969 -22.890625 C 3.347656 -22.890625 0 -20.601562 0 -16.136719 C 0 -14.421875 0.914062 -12.617188 2.203125 -11.503906 C 0.945312 -10.414062 0 -8.5 0 -6.78125 C 0 -2.261719 3.347656 0 6.667969 0 C 9.984375 0 13.363281 -2.261719 13.363281 -6.78125 C 13.363281 -8.5 12.476562 -10.273438 11.042969 -11.472656 Z M 6.667969 -13.476562 C 5.207031 -13.476562 4.0625 -14.648438 4.0625 -16.136719 C 4.0625 -18.027344 5.351562 -18.972656 6.667969 -18.972656 C 7.953125 -18.972656 9.269531 -18.027344 9.269531 -16.136719 C 9.269531 -14.648438 8.097656 -13.476562 6.667969 -13.476562 Z M 6.667969 -4.007812 C 5.40625 -4.007812 4.175781 -4.921875 4.175781 -6.78125 C 4.175781 -8.210938 5.292969 -9.5 6.667969 -9.5 C 8.039062 -9.5 9.15625 -8.210938 9.15625 -6.78125 C 9.15625 -4.921875 7.898438 -4.007812 6.667969 -4.007812 Z M 6.667969 -4.007812 " />
            </g>
        </g>
    </g>
    <g fill="#ffffff" fill-opacity="1">
        <g transform="translate(2.467105, 24.194995)">
            <g>
                <path
                    d="M 7.695312 -22.890625 L 0.285156 -22.890625 C 0.144531 -22.890625 0 -22.746094 0 -22.632812 L 0 -18.683594 L 7.695312 -18.683594 C 8.210938 -18.683594 11.074219 -18.542969 11.074219 -16.023438 C 11.074219 -13.503906 8.269531 -13.449219 7.695312 -13.449219 L 0 -13.449219 L 0 -0.257812 C 0 -0.144531 0.144531 0 0.285156 0 L 4.007812 0 C 4.207031 0 4.292969 -0.144531 4.292969 -0.257812 L 4.292969 -9.214844 L 7.695312 -9.214844 C 8.242188 -9.214844 15.421875 -9.300781 15.421875 -16.023438 C 15.421875 -22.746094 8.613281 -22.890625 7.695312 -22.890625 Z M 7.695312 -22.890625 " />
            </g>
        </g>
    </g>
    <g fill="#ffffff" fill-opacity="1">
        <g transform="translate(18.660758, 24.194995)">
            <g>
                <path
                    d="M 17.96875 -0.34375 L 9.269531 -22.71875 C 9.183594 -22.949219 8.785156 -22.949219 8.699219 -22.71875 L 0.0273438 -0.34375 C -0.0585938 -0.171875 0.0585938 0 0.316406 0 L 4.234375 0 C 4.347656 0 4.492188 -0.0585938 4.519531 -0.171875 L 8.984375 -12.933594 L 13.503906 -0.171875 C 13.535156 -0.0585938 13.675781 0 13.761719 0 L 17.710938 0 C 17.910156 0 18.054688 -0.171875 17.96875 -0.34375 Z M 17.96875 -0.34375 " />
            </g>
        </g>
    </g>
    <g fill="#ffffff" fill-opacity="1">
        <g transform="translate(37.543825, 24.194995)">
            <g>
                <path
                    d="M 15.621094 -0.371094 C 14.191406 -3.546875 12.648438 -6.695312 11.214844 -9.929688 C 13.503906 -10.757812 15.421875 -12.589844 15.421875 -16.082031 C 15.421875 -22.832031 8.984375 -22.890625 7.695312 -22.890625 L 0.285156 -22.890625 C 0.144531 -22.890625 0 -22.746094 0 -22.632812 L 0 -18.742188 L 7.695312 -18.742188 C 8.382812 -18.742188 11.074219 -18.597656 11.074219 -16.082031 C 11.074219 -13.5625 8.640625 -13.449219 7.695312 -13.449219 L 0 -13.449219 L 0 -0.257812 C 0 -0.144531 0.144531 0 0.285156 0 L 4.035156 0 C 4.207031 0 4.347656 -0.144531 4.347656 -0.257812 L 4.347656 -9.242188 L 6.808594 -9.242188 L 10.988281 -0.171875 C 11.015625 -0.0859375 11.1875 0 11.273438 0 L 15.367188 0 C 15.59375 0 15.707031 -0.171875 15.621094 -0.371094 Z M 15.621094 -0.371094 " />
            </g>
        </g>
    </g>
    <g fill="#ffffff" fill-opacity="1">
        <g transform="translate(53.994981, 24.194995)">
            <g>
                <path
                    d="M 9.328125 -3.921875 L 7.039062 -3.921875 L 7.039062 -22.890625 L 2.660156 -22.890625 L 2.660156 -3.921875 L 0.316406 -3.921875 C 0.144531 -3.921875 0 -3.804688 0 -3.664062 L 0 -0.257812 C 0 -0.144531 0.144531 0 0.316406 0 L 9.328125 0 C 9.527344 0 9.644531 -0.144531 9.644531 -0.257812 L 9.644531 -3.664062 C 9.644531 -3.804688 9.527344 -3.921875 9.328125 -3.921875 Z M 9.328125 -3.921875 " />
            </g>
        </g>
    </g>
    <g fill="#ffffff" fill-opacity="1">
        <g transform="translate(64.123172, 24.194995)">
            <g>
                <path
                    d="M 10.5 -12.703125 C 8.871094 -13.476562 7.269531 -13.476562 7.125 -13.476562 C 5.664062 -13.476562 4.261719 -14.335938 4.261719 -15.996094 C 4.261719 -17.828125 5.550781 -18.769531 7.125 -18.769531 C 8.613281 -18.769531 9.871094 -17.996094 9.929688 -16.367188 C 9.929688 -16.28125 10.070312 -16.136719 10.242188 -16.136719 L 13.820312 -16.136719 C 14.019531 -16.136719 14.164062 -16.28125 14.136719 -16.367188 C 14.078125 -20.257812 11.042969 -22.890625 7.125 -22.890625 C 3.460938 -22.890625 0 -20.285156 0 -15.996094 C 0 -13.332031 1.34375 -11.300781 3.71875 -10.214844 C 5.378906 -9.441406 6.925781 -9.441406 7.125 -9.441406 C 8.414062 -9.386719 9.984375 -8.355469 9.984375 -6.667969 C 9.984375 -5.152344 8.640625 -4.121094 7.125 -4.121094 C 7.125 -4.121094 7.125 -4.121094 7.097656 -4.121094 L 7.097656 0 C 7.125 0 7.125 0 7.125 0 C 10.789062 0 14.222656 -2.375 14.222656 -6.667969 C 14.222656 -9.355469 12.90625 -11.589844 10.5 -12.703125 Z M 10.5 -12.703125 " />
            </g>
        </g>
    </g>
    <g fill="#ffffff" fill-opacity="1">
        <g transform="translate(79.057959, 24.194995)">
            <g>
                <path
                    d="M 7.695312 -22.890625 L 0.285156 -22.890625 C 0.144531 -22.890625 0 -22.746094 0 -22.632812 L 0 -18.683594 L 7.695312 -18.683594 C 8.210938 -18.683594 11.074219 -18.542969 11.074219 -16.023438 C 11.074219 -13.503906 8.269531 -13.449219 7.695312 -13.449219 L 0 -13.449219 L 0 -0.257812 C 0 -0.144531 0.144531 0 0.285156 0 L 4.007812 0 C 4.207031 0 4.292969 -0.144531 4.292969 -0.257812 L 4.292969 -9.214844 L 7.695312 -9.214844 C 8.242188 -9.214844 15.421875 -9.300781 15.421875 -16.023438 C 15.421875 -22.746094 8.613281 -22.890625 7.695312 -22.890625 Z M 7.695312 -22.890625 " />
            </g>
        </g>
    </g>
    <g fill="#ffffff" fill-opacity="1">
        <g transform="translate(95.251612, 24.194995)">
            <g>
                <path
                    d="M 20.488281 -5.523438 L 24.835938 -5.523438 L 24.835938 -22.632812 C 24.835938 -22.746094 24.722656 -22.890625 24.523438 -22.890625 L 20.746094 -22.890625 C 20.628906 -22.890625 20.488281 -22.804688 20.429688 -22.71875 L 12.617188 -5.953125 L 4.40625 -22.71875 C 4.378906 -22.804688 4.207031 -22.890625 4.121094 -22.890625 L 0.285156 -22.890625 C 0.0859375 -22.890625 0 -22.746094 0 -22.632812 L 0 -0.257812 C 0 -0.144531 0.0859375 0 0.285156 0 L 4.0625 0 C 4.234375 0 4.378906 -0.144531 4.378906 -0.257812 L 4.378906 -13.105469 L 10.585938 -1.085938 C 10.617188 -1 10.789062 -0.914062 10.875 -0.914062 L 14.394531 -0.914062 C 14.476562 -0.914062 14.621094 -1 14.648438 -1.085938 L 20.488281 -12.789062 Z M 20.488281 -5.523438 " />
            </g>
        </g>
    </g>
    <g fill="#ffffff" fill-opacity="1">
        <g transform="translate(121.344569, 24.194995)">
            <g>
                <path
                    d="M 11.042969 -11.472656 C 12.476562 -12.503906 13.363281 -14.394531 13.363281 -16.136719 C 13.363281 -20.601562 9.984375 -22.890625 6.667969 -22.890625 C 3.347656 -22.890625 0 -20.601562 0 -16.136719 C 0 -14.421875 0.914062 -12.617188 2.203125 -11.503906 C 0.945312 -10.414062 0 -8.5 0 -6.78125 C 0 -2.261719 3.347656 0 6.667969 0 C 9.984375 0 13.363281 -2.261719 13.363281 -6.78125 C 13.363281 -8.5 12.476562 -10.273438 11.042969 -11.472656 Z M 6.667969 -13.476562 C 5.207031 -13.476562 4.0625 -14.648438 4.0625 -16.136719 C 4.0625 -18.027344 5.351562 -18.972656 6.667969 -18.972656 C 7.953125 -18.972656 9.269531 -18.027344 9.269531 -16.136719 C 9.269531 -14.648438 8.097656 -13.476562 6.667969 -13.476562 Z M 6.667969 -4.007812 C 5.40625 -4.007812 4.175781 -4.921875 4.175781 -6.78125 C 4.175781 -8.210938 5.292969 -9.5 6.667969 -9.5 C 8.039062 -9.5 9.15625 -8.210938 9.15625 -6.78125 C 9.15625 -4.921875 7.898438 -4.007812 6.667969 -4.007812 Z M 6.667969 -4.007812 " />
            </g>
        </g>
    </g>
    <g fill="#ffffff" fill-opacity="1">
        <g transform="translate(135.39242, 24.194995)">
            <g>
                <path
                    d="M 11.042969 -11.472656 C 12.476562 -12.503906 13.363281 -14.394531 13.363281 -16.136719 C 13.363281 -20.601562 9.984375 -22.890625 6.667969 -22.890625 C 3.347656 -22.890625 0 -20.601562 0 -16.136719 C 0 -14.421875 0.914062 -12.617188 2.203125 -11.503906 C 0.945312 -10.414062 0 -8.5 0 -6.78125 C 0 -2.261719 3.347656 0 6.667969 0 C 9.984375 0 13.363281 -2.261719 13.363281 -6.78125 C 13.363281 -8.5 12.476562 -10.273438 11.042969 -11.472656 Z M 6.667969 -13.476562 C 5.207031 -13.476562 4.0625 -14.648438 4.0625 -16.136719 C 4.0625 -18.027344 5.351562 -18.972656 6.667969 -18.972656 C 7.953125 -18.972656 9.269531 -18.027344 9.269531 -16.136719 C 9.269531 -14.648438 8.097656 -13.476562 6.667969 -13.476562 Z M 6.667969 -4.007812 C 5.40625 -4.007812 4.175781 -4.921875 4.175781 -6.78125 C 4.175781 -8.210938 5.292969 -9.5 6.667969 -9.5 C 8.039062 -9.5 9.15625 -8.210938 9.15625 -6.78125 C 9.15625 -4.921875 7.898438 -4.007812 6.667969 -4.007812 Z M 6.667969 -4.007812 " />
            </g>
        </g>
    </g>
    <g clip-path="url(#id1)">
        <path stroke-linecap="butt"
            transform="matrix(0.570481, 0.000000000000000141, -0.000000000000000141, 0.570481, 0.986842, 22.690367)"
            fill="none" stroke-linejoin="miter"
            d="M 1.043311 12.997985 L 1.043311 4.158129 L 5.713166 4.158129 L 6.959373 5.418031 L 6.959373 8.451382 L 5.713166 9.711284 L 2.138878 9.711284 L 2.138878 12.997985 Z M 2.138878 8.738968 L 5.22016 8.738968 L 5.870653 8.081628 L 5.870653 5.787785 L 5.22016 5.11675 L 2.138878 5.130444 Z M 9.11627 12.997985 L 12.108538 4.158129 L 13.799819 4.158129 L 16.792087 12.997985 L 15.648589 12.997985 L 14.895386 10.697294 L 11.019818 10.697294 L 10.273463 12.997985 Z M 11.341641 9.738673 L 14.580411 9.738673 L 13.094548 5.19207 L 12.813809 5.19207 Z M 21.372926 12.997985 L 21.372926 5.164681 L 18.743565 5.164681 L 18.743565 4.158129 L 25.091006 4.158129 L 25.091006 5.164681 L 22.461646 5.164681 L 22.461646 12.997985 Z M 27.925786 12.997985 L 27.925786 4.158129 L 32.759975 4.158129 L 34.006183 5.418031 L 34.006183 8.239116 L 32.759975 9.499018 L 32.725739 9.499018 L 34.321158 12.997985 L 33.109187 12.997985 L 31.53431 9.499018 L 29.014506 9.499018 L 29.014506 12.997985 Z M 29.014506 8.526702 L 32.26697 8.526702 L 32.917463 7.862515 L 32.917463 5.787785 L 32.26697 5.130444 L 29.014506 5.130444 Z M 37.381898 12.997985 L 37.381898 11.991433 L 38.463771 11.991433 L 38.463771 5.164681 L 37.381898 5.164681 L 37.381898 4.158129 L 40.634363 4.158129 L 40.634363 5.164681 L 39.552491 5.164681 L 39.552491 11.991433 L 40.634363 11.991433 L 40.634363 12.997985 Z M 45.085104 12.997985 L 43.825202 11.738083 L 43.825202 5.418031 L 45.085104 4.158129 L 49.083923 4.158129 L 50.302741 5.376947 L 49.611165 6.089066 L 48.645696 5.130444 L 45.578109 5.130444 L 44.913921 5.787785 L 44.913921 11.368329 L 45.578109 12.025669 L 48.741559 12.025669 L 49.713874 11.053353 L 50.412298 11.765472 L 49.166091 12.997985 Z M 53.445649 12.997985 L 53.445649 4.158129 L 54.541216 4.158129 L 54.541216 8.869067 L 58.718065 4.158129 L 60.012204 4.158129 L 56.698114 7.951529 L 60.073829 12.997985 L 58.765996 12.997985 L 55.944911 8.800594 L 54.541216 10.409708 L 54.541216 12.997985 Z M 67.249793 12.997985 L 67.249793 4.158129 L 68.735656 4.158129 L 71.522504 11.224536 L 74.3162 4.158129 L 75.815757 4.158129 L 75.815757 12.997985 L 74.713343 12.997985 L 74.713343 5.822021 L 71.830633 12.997985 L 71.221223 12.997985 L 68.338513 5.835716 L 68.338513 12.997985 Z M 79.239404 12.997985 L 79.239404 11.587442 L 80.293887 11.587442 L 80.293887 12.997985 Z M 88.140886 12.997985 L 88.140886 4.158129 L 92.81074 4.158129 L 94.056948 5.418031 L 94.056948 8.451382 L 92.81074 9.711284 L 89.229606 9.711284 L 89.229606 12.997985 Z M 89.229606 8.738968 L 92.317735 8.738968 L 92.961381 8.081628 L 92.961381 5.787785 L 92.317735 5.11675 L 89.229606 5.130444 Z M 96.213845 12.997985 L 99.206112 4.158129 L 100.897394 4.158129 L 103.882814 12.997985 L 102.746163 12.997985 L 101.992961 10.697294 L 98.117393 10.697294 L 97.371038 12.997985 Z M 98.439216 9.738673 L 101.677985 9.738673 L 100.185275 5.19207 L 99.911384 5.19207 Z M 106.724441 12.997985 L 106.724441 4.158129 L 111.565477 4.158129 L 112.811685 5.418031 L 112.811685 8.239116 L 111.565477 9.499018 L 111.531241 9.499018 L 113.12666 12.997985 L 111.914689 12.997985 L 110.339812 9.499018 L 107.820008 9.499018 L 107.820008 12.997985 Z M 107.820008 8.526702 L 111.072472 8.526702 L 111.722965 7.862515 L 111.722965 5.787785 L 111.072472 5.130444 L 107.820008 5.130444 Z M 116.187401 12.997985 L 116.187401 11.991433 L 117.269273 11.991433 L 117.269273 5.164681 L 116.187401 5.164681 L 116.187401 4.158129 L 119.439865 4.158129 L 119.439865 5.164681 L 118.357993 5.164681 L 118.357993 11.991433 L 119.439865 11.991433 L 119.439865 12.997985 Z M 122.870359 12.997985 L 122.870359 11.991433 L 127.225238 11.991433 L 127.868883 11.334092 L 127.868883 9.567491 L 127.225238 8.910151 L 123.801591 8.910151 L 122.555384 7.657096 L 122.555384 5.418031 L 123.801591 4.158129 L 128.512529 4.158129 L 128.512529 5.164681 L 124.294596 5.164681 L 123.637256 5.822021 L 123.650951 7.287342 L 124.294596 7.951529 L 127.718243 7.951529 L 128.96445 9.211431 L 128.96445 11.738083 L 127.718243 12.997985 Z M 122.870359 12.997985 "
            stroke="#ffffff" stroke-width="0.45" stroke-opacity="1" stroke-miterlimit="4" />
    </g>
    <g fill="#ff0000" fill-opacity="1">
        <g transform="translate(1.242841, 36.733768)">
            <g>
                <path
                    d="M 0.609375 0 L 0.609375 -0.578125 L 3.140625 -0.578125 L 3.515625 -0.96875 L 3.515625 -2 L 3.140625 -2.375 L 1.15625 -2.375 L 0.4375 -3.09375 L 0.4375 -4.40625 L 1.15625 -5.140625 L 3.890625 -5.140625 L 3.890625 -4.546875 L 1.4375 -4.546875 L 1.0625 -4.171875 L 1.0625 -3.3125 L 1.4375 -2.9375 L 3.421875 -2.9375 L 4.15625 -2.203125 L 4.15625 -0.734375 L 3.421875 0 Z M 0.609375 0 " />
            </g>
        </g>
    </g>
    <g fill="#ff0000" fill-opacity="1">
        <g transform="translate(5.828147, 36.733768)">
            <g>
                <path
                    d="M 1.203125 0 L 0.46875 -0.734375 L 0.46875 -4.40625 L 1.203125 -5.140625 L 3.625 -5.140625 L 4.359375 -4.40625 L 4.359375 -0.734375 L 3.625 0 Z M 1.484375 -0.5625 L 3.34375 -0.5625 L 3.734375 -0.953125 L 3.734375 -4.1875 L 3.34375 -4.578125 L 1.484375 -4.578125 L 1.109375 -4.1875 L 1.109375 -0.953125 Z M 1.484375 -0.5625 " />
            </g>
        </g>
    </g>
    <g fill="#ff0000" fill-opacity="1">
        <g transform="translate(10.664322, 36.733768)">
            <g>
                <path
                    d="M 0.609375 0 L 0.609375 -5.140625 L 3.921875 -5.140625 L 3.921875 -4.546875 L 1.234375 -4.546875 L 1.234375 -2.890625 L 3.59375 -2.890625 L 3.59375 -2.3125 L 1.234375 -2.3125 L 1.234375 0 Z M 0.609375 0 " />
            </g>
        </g>
    </g>
    <g fill="#ff0000" fill-opacity="1">
        <g transform="translate(14.685171, 36.733768)">
            <g>
                <path
                    d="M 1.609375 0 L 1.609375 -4.546875 L 0.09375 -4.546875 L 0.09375 -5.140625 L 3.78125 -5.140625 L 3.78125 -4.546875 L 2.25 -4.546875 L 2.25 0 Z M 1.609375 0 " />
            </g>
        </g>
    </g>
    <g fill="#ff0000" fill-opacity="1">
        <g transform="translate(18.552717, 36.733768)">
            <g>
                <path
                    d="M 1.359375 0 L 0.09375 -5.140625 L 0.765625 -5.140625 L 1.765625 -0.609375 L 1.921875 -0.609375 L 2.875 -5.140625 L 3.453125 -5.140625 L 4.40625 -0.609375 L 4.5625 -0.609375 L 5.578125 -5.140625 L 6.25 -5.140625 L 4.984375 0 L 3.984375 0 L 3.15625 -3.796875 L 2.34375 0 Z M 1.359375 0 " />
            </g>
        </g>
    </g>
    <g fill="#ff0000" fill-opacity="1">
        <g transform="translate(24.88713, 36.733768)">
            <g>
                <path
                    d="M 0.09375 0 L 1.828125 -5.140625 L 2.8125 -5.140625 L 4.546875 0 L 3.890625 0 L 3.453125 -1.34375 L 1.203125 -1.34375 L 0.765625 0 Z M 1.390625 -1.890625 L 3.265625 -1.890625 L 2.40625 -4.53125 L 2.25 -4.53125 Z M 1.390625 -1.890625 " />
            </g>
        </g>
    </g>
    <g fill="#ff0000" fill-opacity="1">
        <g transform="translate(29.535153, 36.733768)">
            <g>
                <path
                    d="M 0.609375 0 L 0.609375 -5.140625 L 3.421875 -5.140625 L 4.140625 -4.40625 L 4.140625 -2.765625 L 3.421875 -2.03125 L 3.390625 -2.03125 L 4.328125 0 L 3.609375 0 L 2.703125 -2.03125 L 1.234375 -2.03125 L 1.234375 0 Z M 1.234375 -2.59375 L 3.125 -2.59375 L 3.5 -2.984375 L 3.5 -4.1875 L 3.125 -4.578125 L 1.234375 -4.578125 Z M 1.234375 -2.59375 " />
            </g>
        </g>
    </g>
    <g fill="#ff0000" fill-opacity="1">
        <g transform="translate(34.252858, 36.733768)">
            <g>
                <path
                    d="M 0.609375 0 L 0.609375 -5.140625 L 4 -5.140625 L 4 -4.546875 L 1.234375 -4.546875 L 1.234375 -2.984375 L 3.703125 -2.984375 L 3.703125 -2.40625 L 1.234375 -2.40625 L 1.234375 -0.578125 L 4 -0.578125 L 4 0 Z M 0.609375 0 " />
            </g>
        </g>
    </g>
    <g fill="#ff0000" fill-opacity="1">
        <g transform="translate(38.608197, 36.733768)">
            <g />
        </g>
    </g>
    <g fill="#ff0000" fill-opacity="1">
        <g transform="translate(40.155213, 36.733768)">
            <g>
                <path
                    d="M 0.609375 0 L 0.609375 -5.140625 L 4 -5.140625 L 4 -4.546875 L 1.234375 -4.546875 L 1.234375 -2.984375 L 3.703125 -2.984375 L 3.703125 -2.40625 L 1.234375 -2.40625 L 1.234375 -0.578125 L 4 -0.578125 L 4 0 Z M 0.609375 0 " />
            </g>
        </g>
    </g>
    <g fill="#ff0000" fill-opacity="1">
        <g transform="translate(44.510552, 36.733768)">
            <g>
                <path
                    d="M 0.609375 0 L 0.609375 -5.140625 L 1.46875 -5.140625 L 3.765625 -1 L 3.765625 -5.140625 L 4.390625 -5.140625 L 4.390625 0 L 3.640625 0 L 1.390625 -4.0625 L 1.234375 -4.0625 L 1.234375 0 Z M 0.609375 0 " />
            </g>
        </g>
    </g>
    <g fill="#ff0000" fill-opacity="1">
        <g transform="translate(49.513968, 36.733768)">
            <g>
                <path
                    d="M 1.1875 0 L 0.46875 -0.734375 L 0.46875 -4.40625 L 1.203125 -5.140625 L 3.640625 -5.140625 L 4.359375 -4.421875 L 3.953125 -4.015625 L 3.390625 -4.578125 L 1.484375 -4.578125 L 1.109375 -4.1875 L 1.109375 -0.953125 L 1.484375 -0.5625 L 3.03125 -0.5625 L 3.828125 -1.296875 L 3.828125 -2.140625 L 2.640625 -2.140625 L 2.640625 -2.703125 L 4.359375 -2.703125 L 4.359375 0 L 3.828125 0 L 3.828125 -0.59375 L 3.1875 0 Z M 1.1875 0 " />
            </g>
        </g>
    </g>
    <g fill="#ff0000" fill-opacity="1">
        <g transform="translate(54.468606, 36.733768)">
            <g>
                <path
                    d="M 0.4375 0 L 0.4375 -0.578125 L 1.0625 -0.578125 L 1.0625 -4.546875 L 0.4375 -4.546875 L 0.4375 -5.140625 L 2.328125 -5.140625 L 2.328125 -4.546875 L 1.6875 -4.546875 L 1.6875 -0.578125 L 2.328125 -0.578125 L 2.328125 0 Z M 0.4375 0 " />
            </g>
        </g>
    </g>
    <g fill="#ff0000" fill-opacity="1">
        <g transform="translate(57.221184, 36.733768)">
            <g>
                <path
                    d="M 0.609375 0 L 0.609375 -5.140625 L 1.46875 -5.140625 L 3.765625 -1 L 3.765625 -5.140625 L 4.390625 -5.140625 L 4.390625 0 L 3.640625 0 L 1.390625 -4.0625 L 1.234375 -4.0625 L 1.234375 0 Z M 0.609375 0 " />
            </g>
        </g>
    </g>
    <g fill="#ff0000" fill-opacity="1">
        <g transform="translate(62.2246, 36.733768)">
            <g>
                <path
                    d="M 0.609375 0 L 0.609375 -5.140625 L 4 -5.140625 L 4 -4.546875 L 1.234375 -4.546875 L 1.234375 -2.984375 L 3.703125 -2.984375 L 3.703125 -2.40625 L 1.234375 -2.40625 L 1.234375 -0.578125 L 4 -0.578125 L 4 0 Z M 0.609375 0 " />
            </g>
        </g>
    </g>
    <g fill="#ff0000" fill-opacity="1">
        <g transform="translate(66.579939, 36.733768)">
            <g>
                <path
                    d="M 0.609375 0 L 0.609375 -5.140625 L 4 -5.140625 L 4 -4.546875 L 1.234375 -4.546875 L 1.234375 -2.984375 L 3.703125 -2.984375 L 3.703125 -2.40625 L 1.234375 -2.40625 L 1.234375 -0.578125 L 4 -0.578125 L 4 0 Z M 0.609375 0 " />
            </g>
        </g>
    </g>
    <g fill="#ff0000" fill-opacity="1">
        <g transform="translate(70.935277, 36.733768)">
            <g>
                <path
                    d="M 0.609375 0 L 0.609375 -5.140625 L 3.421875 -5.140625 L 4.140625 -4.40625 L 4.140625 -2.765625 L 3.421875 -2.03125 L 3.390625 -2.03125 L 4.328125 0 L 3.609375 0 L 2.703125 -2.03125 L 1.234375 -2.03125 L 1.234375 0 Z M 1.234375 -2.59375 L 3.125 -2.59375 L 3.5 -2.984375 L 3.5 -4.1875 L 3.125 -4.578125 L 1.234375 -4.578125 Z M 1.234375 -2.59375 " />
            </g>
        </g>
    </g>
    <g fill="#00ffff" fill-opacity="1">
        <g transform="translate(0.730843, 36.029064)">
            <g>
                <path
                    d="M 0.609375 0 L 0.609375 -0.578125 L 3.140625 -0.578125 L 3.515625 -0.96875 L 3.515625 -2 L 3.140625 -2.375 L 1.15625 -2.375 L 0.4375 -3.09375 L 0.4375 -4.40625 L 1.15625 -5.140625 L 3.890625 -5.140625 L 3.890625 -4.546875 L 1.4375 -4.546875 L 1.0625 -4.171875 L 1.0625 -3.3125 L 1.4375 -2.9375 L 3.421875 -2.9375 L 4.15625 -2.203125 L 4.15625 -0.734375 L 3.421875 0 Z M 0.609375 0 " />
            </g>
        </g>
    </g>
    <g fill="#00ffff" fill-opacity="1">
        <g transform="translate(5.316149, 36.029064)">
            <g>
                <path
                    d="M 1.203125 0 L 0.46875 -0.734375 L 0.46875 -4.40625 L 1.203125 -5.140625 L 3.625 -5.140625 L 4.359375 -4.40625 L 4.359375 -0.734375 L 3.625 0 Z M 1.484375 -0.5625 L 3.34375 -0.5625 L 3.734375 -0.953125 L 3.734375 -4.1875 L 3.34375 -4.578125 L 1.484375 -4.578125 L 1.109375 -4.1875 L 1.109375 -0.953125 Z M 1.484375 -0.5625 " />
            </g>
        </g>
    </g>
    <g fill="#00ffff" fill-opacity="1">
        <g transform="translate(10.152325, 36.029064)">
            <g>
                <path
                    d="M 0.609375 0 L 0.609375 -5.140625 L 3.921875 -5.140625 L 3.921875 -4.546875 L 1.234375 -4.546875 L 1.234375 -2.890625 L 3.59375 -2.890625 L 3.59375 -2.3125 L 1.234375 -2.3125 L 1.234375 0 Z M 0.609375 0 " />
            </g>
        </g>
    </g>
    <g fill="#00ffff" fill-opacity="1">
        <g transform="translate(14.173173, 36.029064)">
            <g>
                <path
                    d="M 1.609375 0 L 1.609375 -4.546875 L 0.09375 -4.546875 L 0.09375 -5.140625 L 3.78125 -5.140625 L 3.78125 -4.546875 L 2.25 -4.546875 L 2.25 0 Z M 1.609375 0 " />
            </g>
        </g>
    </g>
    <g fill="#00ffff" fill-opacity="1">
        <g transform="translate(18.040719, 36.029064)">
            <g>
                <path
                    d="M 1.359375 0 L 0.09375 -5.140625 L 0.765625 -5.140625 L 1.765625 -0.609375 L 1.921875 -0.609375 L 2.875 -5.140625 L 3.453125 -5.140625 L 4.40625 -0.609375 L 4.5625 -0.609375 L 5.578125 -5.140625 L 6.25 -5.140625 L 4.984375 0 L 3.984375 0 L 3.15625 -3.796875 L 2.34375 0 Z M 1.359375 0 " />
            </g>
        </g>
    </g>
    <g fill="#00ffff" fill-opacity="1">
        <g transform="translate(24.375132, 36.029064)">
            <g>
                <path
                    d="M 0.09375 0 L 1.828125 -5.140625 L 2.8125 -5.140625 L 4.546875 0 L 3.890625 0 L 3.453125 -1.34375 L 1.203125 -1.34375 L 0.765625 0 Z M 1.390625 -1.890625 L 3.265625 -1.890625 L 2.40625 -4.53125 L 2.25 -4.53125 Z M 1.390625 -1.890625 " />
            </g>
        </g>
    </g>
    <g fill="#00ffff" fill-opacity="1">
        <g transform="translate(29.023155, 36.029064)">
            <g>
                <path
                    d="M 0.609375 0 L 0.609375 -5.140625 L 3.421875 -5.140625 L 4.140625 -4.40625 L 4.140625 -2.765625 L 3.421875 -2.03125 L 3.390625 -2.03125 L 4.328125 0 L 3.609375 0 L 2.703125 -2.03125 L 1.234375 -2.03125 L 1.234375 0 Z M 1.234375 -2.59375 L 3.125 -2.59375 L 3.5 -2.984375 L 3.5 -4.1875 L 3.125 -4.578125 L 1.234375 -4.578125 Z M 1.234375 -2.59375 " />
            </g>
        </g>
    </g>
    <g fill="#00ffff" fill-opacity="1">
        <g transform="translate(33.74086, 36.029064)">
            <g>
                <path
                    d="M 0.609375 0 L 0.609375 -5.140625 L 4 -5.140625 L 4 -4.546875 L 1.234375 -4.546875 L 1.234375 -2.984375 L 3.703125 -2.984375 L 3.703125 -2.40625 L 1.234375 -2.40625 L 1.234375 -0.578125 L 4 -0.578125 L 4 0 Z M 0.609375 0 " />
            </g>
        </g>
    </g>
    <g fill="#00ffff" fill-opacity="1">
        <g transform="translate(38.096199, 36.029064)">
            <g />
        </g>
    </g>
    <g fill="#00ffff" fill-opacity="1">
        <g transform="translate(39.643216, 36.029064)">
            <g>
                <path
                    d="M 0.609375 0 L 0.609375 -5.140625 L 4 -5.140625 L 4 -4.546875 L 1.234375 -4.546875 L 1.234375 -2.984375 L 3.703125 -2.984375 L 3.703125 -2.40625 L 1.234375 -2.40625 L 1.234375 -0.578125 L 4 -0.578125 L 4 0 Z M 0.609375 0 " />
            </g>
        </g>
    </g>
    <g fill="#00ffff" fill-opacity="1">
        <g transform="translate(43.998554, 36.029064)">
            <g>
                <path
                    d="M 0.609375 0 L 0.609375 -5.140625 L 1.46875 -5.140625 L 3.765625 -1 L 3.765625 -5.140625 L 4.390625 -5.140625 L 4.390625 0 L 3.640625 0 L 1.390625 -4.0625 L 1.234375 -4.0625 L 1.234375 0 Z M 0.609375 0 " />
            </g>
        </g>
    </g>
    <g fill="#00ffff" fill-opacity="1">
        <g transform="translate(49.001971, 36.029064)">
            <g>
                <path
                    d="M 1.1875 0 L 0.46875 -0.734375 L 0.46875 -4.40625 L 1.203125 -5.140625 L 3.640625 -5.140625 L 4.359375 -4.421875 L 3.953125 -4.015625 L 3.390625 -4.578125 L 1.484375 -4.578125 L 1.109375 -4.1875 L 1.109375 -0.953125 L 1.484375 -0.5625 L 3.03125 -0.5625 L 3.828125 -1.296875 L 3.828125 -2.140625 L 2.640625 -2.140625 L 2.640625 -2.703125 L 4.359375 -2.703125 L 4.359375 0 L 3.828125 0 L 3.828125 -0.59375 L 3.1875 0 Z M 1.1875 0 " />
            </g>
        </g>
    </g>
    <g fill="#00ffff" fill-opacity="1">
        <g transform="translate(53.956608, 36.029064)">
            <g>
                <path
                    d="M 0.4375 0 L 0.4375 -0.578125 L 1.0625 -0.578125 L 1.0625 -4.546875 L 0.4375 -4.546875 L 0.4375 -5.140625 L 2.328125 -5.140625 L 2.328125 -4.546875 L 1.6875 -4.546875 L 1.6875 -0.578125 L 2.328125 -0.578125 L 2.328125 0 Z M 0.4375 0 " />
            </g>
        </g>
    </g>
    <g fill="#00ffff" fill-opacity="1">
        <g transform="translate(56.709186, 36.029064)">
            <g>
                <path
                    d="M 0.609375 0 L 0.609375 -5.140625 L 1.46875 -5.140625 L 3.765625 -1 L 3.765625 -5.140625 L 4.390625 -5.140625 L 4.390625 0 L 3.640625 0 L 1.390625 -4.0625 L 1.234375 -4.0625 L 1.234375 0 Z M 0.609375 0 " />
            </g>
        </g>
    </g>
    <g fill="#00ffff" fill-opacity="1">
        <g transform="translate(61.712602, 36.029064)">
            <g>
                <path
                    d="M 0.609375 0 L 0.609375 -5.140625 L 4 -5.140625 L 4 -4.546875 L 1.234375 -4.546875 L 1.234375 -2.984375 L 3.703125 -2.984375 L 3.703125 -2.40625 L 1.234375 -2.40625 L 1.234375 -0.578125 L 4 -0.578125 L 4 0 Z M 0.609375 0 " />
            </g>
        </g>
    </g>
    <g fill="#00ffff" fill-opacity="1">
        <g transform="translate(66.067941, 36.029064)">
            <g>
                <path
                    d="M 0.609375 0 L 0.609375 -5.140625 L 4 -5.140625 L 4 -4.546875 L 1.234375 -4.546875 L 1.234375 -2.984375 L 3.703125 -2.984375 L 3.703125 -2.40625 L 1.234375 -2.40625 L 1.234375 -0.578125 L 4 -0.578125 L 4 0 Z M 0.609375 0 " />
            </g>
        </g>
    </g>
    <g fill="#00ffff" fill-opacity="1">
        <g transform="translate(70.42328, 36.029064)">
            <g>
                <path
                    d="M 0.609375 0 L 0.609375 -5.140625 L 3.421875 -5.140625 L 4.140625 -4.40625 L 4.140625 -2.765625 L 3.421875 -2.03125 L 3.390625 -2.03125 L 4.328125 0 L 3.609375 0 L 2.703125 -2.03125 L 1.234375 -2.03125 L 1.234375 0 Z M 1.234375 -2.59375 L 3.125 -2.59375 L 3.5 -2.984375 L 3.5 -4.1875 L 3.125 -4.578125 L 1.234375 -4.578125 Z M 1.234375 -2.59375 " />
            </g>
        </g>
    </g>
    <g fill="#ffffff" fill-opacity="1">
        <g transform="translate(0.986842, 36.381416)">
            <g>
                <path
                    d="M 0.609375 0 L 0.609375 -0.578125 L 3.140625 -0.578125 L 3.515625 -0.96875 L 3.515625 -2 L 3.140625 -2.375 L 1.15625 -2.375 L 0.4375 -3.09375 L 0.4375 -4.40625 L 1.15625 -5.140625 L 3.890625 -5.140625 L 3.890625 -4.546875 L 1.4375 -4.546875 L 1.0625 -4.171875 L 1.0625 -3.3125 L 1.4375 -2.9375 L 3.421875 -2.9375 L 4.15625 -2.203125 L 4.15625 -0.734375 L 3.421875 0 Z M 0.609375 0 " />
            </g>
        </g>
    </g>
    <g fill="#ffffff" fill-opacity="1">
        <g transform="translate(5.572148, 36.381416)">
            <g>
                <path
                    d="M 1.203125 0 L 0.46875 -0.734375 L 0.46875 -4.40625 L 1.203125 -5.140625 L 3.625 -5.140625 L 4.359375 -4.40625 L 4.359375 -0.734375 L 3.625 0 Z M 1.484375 -0.5625 L 3.34375 -0.5625 L 3.734375 -0.953125 L 3.734375 -4.1875 L 3.34375 -4.578125 L 1.484375 -4.578125 L 1.109375 -4.1875 L 1.109375 -0.953125 Z M 1.484375 -0.5625 " />
            </g>
        </g>
    </g>
    <g fill="#ffffff" fill-opacity="1">
        <g transform="translate(10.408324, 36.381416)">
            <g>
                <path
                    d="M 0.609375 0 L 0.609375 -5.140625 L 3.921875 -5.140625 L 3.921875 -4.546875 L 1.234375 -4.546875 L 1.234375 -2.890625 L 3.59375 -2.890625 L 3.59375 -2.3125 L 1.234375 -2.3125 L 1.234375 0 Z M 0.609375 0 " />
            </g>
        </g>
    </g>
    <g fill="#ffffff" fill-opacity="1">
        <g transform="translate(14.429172, 36.381416)">
            <g>
                <path
                    d="M 1.609375 0 L 1.609375 -4.546875 L 0.09375 -4.546875 L 0.09375 -5.140625 L 3.78125 -5.140625 L 3.78125 -4.546875 L 2.25 -4.546875 L 2.25 0 Z M 1.609375 0 " />
            </g>
        </g>
    </g>
    <g fill="#ffffff" fill-opacity="1">
        <g transform="translate(18.296718, 36.381416)">
            <g>
                <path
                    d="M 1.359375 0 L 0.09375 -5.140625 L 0.765625 -5.140625 L 1.765625 -0.609375 L 1.921875 -0.609375 L 2.875 -5.140625 L 3.453125 -5.140625 L 4.40625 -0.609375 L 4.5625 -0.609375 L 5.578125 -5.140625 L 6.25 -5.140625 L 4.984375 0 L 3.984375 0 L 3.15625 -3.796875 L 2.34375 0 Z M 1.359375 0 " />
            </g>
        </g>
    </g>
    <g fill="#ffffff" fill-opacity="1">
        <g transform="translate(24.631131, 36.381416)">
            <g>
                <path
                    d="M 0.09375 0 L 1.828125 -5.140625 L 2.8125 -5.140625 L 4.546875 0 L 3.890625 0 L 3.453125 -1.34375 L 1.203125 -1.34375 L 0.765625 0 Z M 1.390625 -1.890625 L 3.265625 -1.890625 L 2.40625 -4.53125 L 2.25 -4.53125 Z M 1.390625 -1.890625 " />
            </g>
        </g>
    </g>
    <g fill="#ffffff" fill-opacity="1">
        <g transform="translate(29.279154, 36.381416)">
            <g>
                <path
                    d="M 0.609375 0 L 0.609375 -5.140625 L 3.421875 -5.140625 L 4.140625 -4.40625 L 4.140625 -2.765625 L 3.421875 -2.03125 L 3.390625 -2.03125 L 4.328125 0 L 3.609375 0 L 2.703125 -2.03125 L 1.234375 -2.03125 L 1.234375 0 Z M 1.234375 -2.59375 L 3.125 -2.59375 L 3.5 -2.984375 L 3.5 -4.1875 L 3.125 -4.578125 L 1.234375 -4.578125 Z M 1.234375 -2.59375 " />
            </g>
        </g>
    </g>
    <g fill="#ffffff" fill-opacity="1">
        <g transform="translate(33.996859, 36.381416)">
            <g>
                <path
                    d="M 0.609375 0 L 0.609375 -5.140625 L 4 -5.140625 L 4 -4.546875 L 1.234375 -4.546875 L 1.234375 -2.984375 L 3.703125 -2.984375 L 3.703125 -2.40625 L 1.234375 -2.40625 L 1.234375 -0.578125 L 4 -0.578125 L 4 0 Z M 0.609375 0 " />
            </g>
        </g>
    </g>
    <g fill="#ffffff" fill-opacity="1">
        <g transform="translate(38.352198, 36.381416)">
            <g />
        </g>
    </g>
    <g fill="#ffffff" fill-opacity="1">
        <g transform="translate(39.899215, 36.381416)">
            <g>
                <path
                    d="M 0.609375 0 L 0.609375 -5.140625 L 4 -5.140625 L 4 -4.546875 L 1.234375 -4.546875 L 1.234375 -2.984375 L 3.703125 -2.984375 L 3.703125 -2.40625 L 1.234375 -2.40625 L 1.234375 -0.578125 L 4 -0.578125 L 4 0 Z M 0.609375 0 " />
            </g>
        </g>
    </g>
    <g fill="#ffffff" fill-opacity="1">
        <g transform="translate(44.254553, 36.381416)">
            <g>
                <path
                    d="M 0.609375 0 L 0.609375 -5.140625 L 1.46875 -5.140625 L 3.765625 -1 L 3.765625 -5.140625 L 4.390625 -5.140625 L 4.390625 0 L 3.640625 0 L 1.390625 -4.0625 L 1.234375 -4.0625 L 1.234375 0 Z M 0.609375 0 " />
            </g>
        </g>
    </g>
    <g fill="#ffffff" fill-opacity="1">
        <g transform="translate(49.25797, 36.381416)">
            <g>
                <path
                    d="M 1.1875 0 L 0.46875 -0.734375 L 0.46875 -4.40625 L 1.203125 -5.140625 L 3.640625 -5.140625 L 4.359375 -4.421875 L 3.953125 -4.015625 L 3.390625 -4.578125 L 1.484375 -4.578125 L 1.109375 -4.1875 L 1.109375 -0.953125 L 1.484375 -0.5625 L 3.03125 -0.5625 L 3.828125 -1.296875 L 3.828125 -2.140625 L 2.640625 -2.140625 L 2.640625 -2.703125 L 4.359375 -2.703125 L 4.359375 0 L 3.828125 0 L 3.828125 -0.59375 L 3.1875 0 Z M 1.1875 0 " />
            </g>
        </g>
    </g>
    <g fill="#ffffff" fill-opacity="1">
        <g transform="translate(54.212607, 36.381416)">
            <g>
                <path
                    d="M 0.4375 0 L 0.4375 -0.578125 L 1.0625 -0.578125 L 1.0625 -4.546875 L 0.4375 -4.546875 L 0.4375 -5.140625 L 2.328125 -5.140625 L 2.328125 -4.546875 L 1.6875 -4.546875 L 1.6875 -0.578125 L 2.328125 -0.578125 L 2.328125 0 Z M 0.4375 0 " />
            </g>
        </g>
    </g>
    <g fill="#ffffff" fill-opacity="1">
        <g transform="translate(56.965185, 36.381416)">
            <g>
                <path
                    d="M 0.609375 0 L 0.609375 -5.140625 L 1.46875 -5.140625 L 3.765625 -1 L 3.765625 -5.140625 L 4.390625 -5.140625 L 4.390625 0 L 3.640625 0 L 1.390625 -4.0625 L 1.234375 -4.0625 L 1.234375 0 Z M 0.609375 0 " />
            </g>
        </g>
    </g>
    <g fill="#ffffff" fill-opacity="1">
        <g transform="translate(61.968601, 36.381416)">
            <g>
                <path
                    d="M 0.609375 0 L 0.609375 -5.140625 L 4 -5.140625 L 4 -4.546875 L 1.234375 -4.546875 L 1.234375 -2.984375 L 3.703125 -2.984375 L 3.703125 -2.40625 L 1.234375 -2.40625 L 1.234375 -0.578125 L 4 -0.578125 L 4 0 Z M 0.609375 0 " />
            </g>
        </g>
    </g>
    <g fill="#ffffff" fill-opacity="1">
        <g transform="translate(66.32394, 36.381416)">
            <g>
                <path
                    d="M 0.609375 0 L 0.609375 -5.140625 L 4 -5.140625 L 4 -4.546875 L 1.234375 -4.546875 L 1.234375 -2.984375 L 3.703125 -2.984375 L 3.703125 -2.40625 L 1.234375 -2.40625 L 1.234375 -0.578125 L 4 -0.578125 L 4 0 Z M 0.609375 0 " />
            </g>
        </g>
    </g>
    <g fill="#ffffff" fill-opacity="1">
        <g transform="translate(70.679279, 36.381416)">
            <g>
                <path
                    d="M 0.609375 0 L 0.609375 -5.140625 L 3.421875 -5.140625 L 4.140625 -4.40625 L 4.140625 -2.765625 L 3.421875 -2.03125 L 3.390625 -2.03125 L 4.328125 0 L 3.609375 0 L 2.703125 -2.03125 L 1.234375 -2.03125 L 1.234375 0 Z M 1.234375 -2.59375 L 3.125 -2.59375 L 3.5 -2.984375 L 3.5 -4.1875 L 3.125 -4.578125 L 1.234375 -4.578125 Z M 1.234375 -2.59375 " />
            </g>
        </g>
    </g>
</svg>