<svg xmlns="http://www.w3.org/2000/svg" xmlns:xlink="http://www.w3.org/1999/xlink" width="512" zoomAndPan="magnify" viewBox="0 0 256 37" height="80" preserveAspectRatio="xMidYMin meet" version="1.0"><defs><g/><clipPath id="id1"><path d="M 0.988281 0 L 149.011719 0 L 149.011719 37.007812 L 0.988281 37.007812 Z M 0.988281 0 " clip-rule="nonzero"/></clipPath><clipPath id="id2"><path d="M 0.988281 22 L 77 22 L 77 31 L 0.988281 31 Z M 0.988281 22 " clip-rule="nonzero"/></clipPath></defs><g clip-path="url(#id1)"><path fill="rgb(100%, 100%, 100%)" d="M 0.988281 0 L 149.011719 0 L 149.011719 81.414062 L 0.988281 81.414062 Z M 0.988281 0 " fill-opacity="1" fill-rule="nonzero"/><path fill="rgb(100%, 100%, 100%)" d="M 0.988281 0 L 149.011719 0 L 149.011719 37.007812 L 0.988281 37.007812 Z M 0.988281 0 " fill-opacity="1" fill-rule="nonzero"/><path fill="rgb(100%, 100%, 100%)" d="M 0.988281 0 L 149.011719 0 L 149.011719 37.007812 L 0.988281 37.007812 Z M 0.988281 0 " fill-opacity="1" fill-rule="nonzero"/><path fill="rgb(100%, 100%, 100%)" d="M 0.988281 0 L 149.011719 0 L 149.011719 37.007812 L 0.988281 37.007812 Z M 0.988281 0 " fill-opacity="1" fill-rule="nonzero"/></g><g fill="rgb(0%, 0%, 0%)" fill-opacity="1"><g transform="translate(1.356908, 23.454865)"><g><path d="M 7.695312 -22.890625 L 0.285156 -22.890625 C 0.144531 -22.890625 0 -22.746094 0 -22.632812 L 0 -18.683594 L 7.695312 -18.683594 C 8.210938 -18.683594 11.074219 -18.542969 11.074219 -16.023438 C 11.074219 -13.503906 8.269531 -13.449219 7.695312 -13.449219 L 0 -13.449219 L 0 -0.257812 C 0 -0.144531 0.144531 0 0.285156 0 L 4.007812 0 C 4.207031 0 4.292969 -0.144531 4.292969 -0.257812 L 4.292969 -9.214844 L 7.695312 -9.214844 C 8.242188 -9.214844 15.421875 -9.300781 15.421875 -16.023438 C 15.421875 -22.746094 8.613281 -22.890625 7.695312 -22.890625 Z M 7.695312 -22.890625 "/></g></g></g><g fill="rgb(0%, 0%, 0%)" fill-opacity="1"><g transform="translate(17.550561, 23.454865)"><g><path d="M 17.96875 -0.34375 L 9.269531 -22.71875 C 9.183594 -22.949219 8.785156 -22.949219 8.699219 -22.71875 L 0.0273438 -0.34375 C -0.0585938 -0.171875 0.0585938 0 0.316406 0 L 4.234375 0 C 4.347656 0 4.492188 -0.0585938 4.519531 -0.171875 L 8.984375 -12.933594 L 13.503906 -0.171875 C 13.535156 -0.0585938 13.675781 0 13.761719 0 L 17.710938 0 C 17.910156 0 18.054688 -0.171875 17.96875 -0.34375 Z M 17.96875 -0.34375 "/></g></g></g><g fill="rgb(0%, 0%, 0%)" fill-opacity="1"><g transform="translate(36.433628, 23.454865)"><g><path d="M 15.621094 -0.371094 C 14.191406 -3.546875 12.648438 -6.695312 11.214844 -9.929688 C 13.503906 -10.757812 15.421875 -12.589844 15.421875 -16.082031 C 15.421875 -22.832031 8.984375 -22.890625 7.695312 -22.890625 L 0.285156 -22.890625 C 0.144531 -22.890625 0 -22.746094 0 -22.632812 L 0 -18.742188 L 7.695312 -18.742188 C 8.382812 -18.742188 11.074219 -18.597656 11.074219 -16.082031 C 11.074219 -13.5625 8.640625 -13.449219 7.695312 -13.449219 L 0 -13.449219 L 0 -0.257812 C 0 -0.144531 0.144531 0 0.285156 0 L 4.035156 0 C 4.207031 0 4.347656 -0.144531 4.347656 -0.257812 L 4.347656 -9.242188 L 6.808594 -9.242188 L 10.988281 -0.171875 C 11.015625 -0.0859375 11.1875 0 11.273438 0 L 15.367188 0 C 15.59375 0 15.707031 -0.171875 15.621094 -0.371094 Z M 15.621094 -0.371094 "/></g></g></g><g fill="rgb(0%, 0%, 0%)" fill-opacity="1"><g transform="translate(52.884784, 23.454865)"><g><path d="M 9.328125 -3.921875 L 7.039062 -3.921875 L 7.039062 -22.890625 L 2.660156 -22.890625 L 2.660156 -3.921875 L 0.316406 -3.921875 C 0.144531 -3.921875 0 -3.804688 0 -3.664062 L 0 -0.257812 C 0 -0.144531 0.144531 0 0.316406 0 L 9.328125 0 C 9.527344 0 9.644531 -0.144531 9.644531 -0.257812 L 9.644531 -3.664062 C 9.644531 -3.804688 9.527344 -3.921875 9.328125 -3.921875 Z M 9.328125 -3.921875 "/></g></g></g><g fill="rgb(0%, 0%, 0%)" fill-opacity="1"><g transform="translate(63.012974, 23.454865)"><g><path d="M 10.5 -12.703125 C 8.871094 -13.476562 7.269531 -13.476562 7.125 -13.476562 C 5.664062 -13.476562 4.261719 -14.335938 4.261719 -15.996094 C 4.261719 -17.828125 5.550781 -18.769531 7.125 -18.769531 C 8.613281 -18.769531 9.871094 -17.996094 9.929688 -16.367188 C 9.929688 -16.28125 10.070312 -16.136719 10.242188 -16.136719 L 13.820312 -16.136719 C 14.019531 -16.136719 14.164062 -16.28125 14.136719 -16.367188 C 14.078125 -20.257812 11.042969 -22.890625 7.125 -22.890625 C 3.460938 -22.890625 0 -20.285156 0 -15.996094 C 0 -13.332031 1.34375 -11.300781 3.71875 -10.214844 C 5.378906 -9.441406 6.925781 -9.441406 7.125 -9.441406 C 8.414062 -9.386719 9.984375 -8.355469 9.984375 -6.667969 C 9.984375 -5.152344 8.640625 -4.121094 7.125 -4.121094 C 7.125 -4.121094 7.125 -4.121094 7.097656 -4.121094 L 7.097656 0 C 7.125 0 7.125 0 7.125 0 C 10.789062 0 14.222656 -2.375 14.222656 -6.667969 C 14.222656 -9.355469 12.90625 -11.589844 10.5 -12.703125 Z M 10.5 -12.703125 "/></g></g></g><g fill="rgb(0%, 0%, 0%)" fill-opacity="1"><g transform="translate(77.947762, 23.454865)"><g><path d="M 7.695312 -22.890625 L 0.285156 -22.890625 C 0.144531 -22.890625 0 -22.746094 0 -22.632812 L 0 -18.683594 L 7.695312 -18.683594 C 8.210938 -18.683594 11.074219 -18.542969 11.074219 -16.023438 C 11.074219 -13.503906 8.269531 -13.449219 7.695312 -13.449219 L 0 -13.449219 L 0 -0.257812 C 0 -0.144531 0.144531 0 0.285156 0 L 4.007812 0 C 4.207031 0 4.292969 -0.144531 4.292969 -0.257812 L 4.292969 -9.214844 L 7.695312 -9.214844 C 8.242188 -9.214844 15.421875 -9.300781 15.421875 -16.023438 C 15.421875 -22.746094 8.613281 -22.890625 7.695312 -22.890625 Z M 7.695312 -22.890625 "/></g></g></g><g fill="rgb(0%, 0%, 0%)" fill-opacity="1"><g transform="translate(94.141414, 23.454865)"><g><path d="M 20.488281 -5.523438 L 24.835938 -5.523438 L 24.835938 -22.632812 C 24.835938 -22.746094 24.722656 -22.890625 24.523438 -22.890625 L 20.746094 -22.890625 C 20.628906 -22.890625 20.488281 -22.804688 20.429688 -22.71875 L 12.617188 -5.953125 L 4.40625 -22.71875 C 4.378906 -22.804688 4.207031 -22.890625 4.121094 -22.890625 L 0.285156 -22.890625 C 0.0859375 -22.890625 0 -22.746094 0 -22.632812 L 0 -0.257812 C 0 -0.144531 0.0859375 0 0.285156 0 L 4.0625 0 C 4.234375 0 4.378906 -0.144531 4.378906 -0.257812 L 4.378906 -13.105469 L 10.585938 -1.085938 C 10.617188 -1 10.789062 -0.914062 10.875 -0.914062 L 14.394531 -0.914062 C 14.476562 -0.914062 14.621094 -1 14.648438 -1.085938 L 20.488281 -12.789062 Z M 20.488281 -5.523438 "/></g></g></g><g fill="rgb(0%, 0%, 0%)" fill-opacity="1"><g transform="translate(120.234372, 23.454865)"><g><path d="M 11.042969 -11.472656 C 12.476562 -12.503906 13.363281 -14.394531 13.363281 -16.136719 C 13.363281 -20.601562 9.984375 -22.890625 6.667969 -22.890625 C 3.347656 -22.890625 0 -20.601562 0 -16.136719 C 0 -14.421875 0.914062 -12.617188 2.203125 -11.503906 C 0.945312 -10.414062 0 -8.5 0 -6.78125 C 0 -2.261719 3.347656 0 6.667969 0 C 9.984375 0 13.363281 -2.261719 13.363281 -6.78125 C 13.363281 -8.5 12.476562 -10.273438 11.042969 -11.472656 Z M 6.667969 -13.476562 C 5.207031 -13.476562 4.0625 -14.648438 4.0625 -16.136719 C 4.0625 -18.027344 5.351562 -18.972656 6.667969 -18.972656 C 7.953125 -18.972656 9.269531 -18.027344 9.269531 -16.136719 C 9.269531 -14.648438 8.097656 -13.476562 6.667969 -13.476562 Z M 6.667969 -4.007812 C 5.40625 -4.007812 4.175781 -4.921875 4.175781 -6.78125 C 4.175781 -8.210938 5.292969 -9.5 6.667969 -9.5 C 8.039062 -9.5 9.15625 -8.210938 9.15625 -6.78125 C 9.15625 -4.921875 7.898438 -4.007812 6.667969 -4.007812 Z M 6.667969 -4.007812 "/></g></g></g><g fill="rgb(0%, 0%, 0%)" fill-opacity="1"><g transform="translate(134.282223, 23.454865)"><g><path d="M 11.042969 -11.472656 C 12.476562 -12.503906 13.363281 -14.394531 13.363281 -16.136719 C 13.363281 -20.601562 9.984375 -22.890625 6.667969 -22.890625 C 3.347656 -22.890625 0 -20.601562 0 -16.136719 C 0 -14.421875 0.914062 -12.617188 2.203125 -11.503906 C 0.945312 -10.414062 0 -8.5 0 -6.78125 C 0 -2.261719 3.347656 0 6.667969 0 C 9.984375 0 13.363281 -2.261719 13.363281 -6.78125 C 13.363281 -8.5 12.476562 -10.273438 11.042969 -11.472656 Z M 6.667969 -13.476562 C 5.207031 -13.476562 4.0625 -14.648438 4.0625 -16.136719 C 4.0625 -18.027344 5.351562 -18.972656 6.667969 -18.972656 C 7.953125 -18.972656 9.269531 -18.027344 9.269531 -16.136719 C 9.269531 -14.648438 8.097656 -13.476562 6.667969 -13.476562 Z M 6.667969 -4.007812 C 5.40625 -4.007812 4.175781 -4.921875 4.175781 -6.78125 C 4.175781 -8.210938 5.292969 -9.5 6.667969 -9.5 C 8.039062 -9.5 9.15625 -8.210938 9.15625 -6.78125 C 9.15625 -4.921875 7.898438 -4.007812 6.667969 -4.007812 Z M 6.667969 -4.007812 "/></g></g></g><g clip-path="url(#id2)"><path stroke-linecap="butt" transform="matrix(0.570481, 0.000000000000000141, -0.000000000000000141, 0.570481, 0.986842, 21.950234)" fill="none" stroke-linejoin="miter" d="M 1.043311 13.001232 L 1.043311 4.154528 L 5.713166 4.154528 L 6.959373 5.41443 L 6.959373 8.454629 L 5.713166 9.714531 L 2.138878 9.714531 L 2.138878 13.001232 Z M 2.138878 8.742215 L 5.22016 8.742215 L 5.870653 8.078027 L 5.870653 5.784184 L 5.22016 5.113149 L 2.138878 5.126844 Z M 9.11627 13.001232 L 12.108538 4.154528 L 13.799819 4.154528 L 16.792087 13.001232 L 15.648589 13.001232 L 14.895386 10.700541 L 11.019818 10.700541 L 10.273463 13.001232 Z M 11.341641 9.735072 L 14.580411 9.735072 L 13.094548 5.18847 L 12.813809 5.18847 Z M 21.372926 13.001232 L 21.372926 5.16108 L 18.743565 5.16108 L 18.743565 4.154528 L 25.091006 4.154528 L 25.091006 5.16108 L 22.461646 5.16108 L 22.461646 13.001232 Z M 27.925786 13.001232 L 27.925786 4.154528 L 32.759975 4.154528 L 34.006183 5.41443 L 34.006183 8.235515 L 32.759975 9.495417 L 32.725739 9.495417 L 34.321158 13.001232 L 33.109187 13.001232 L 31.53431 9.495417 L 29.014506 9.495417 L 29.014506 13.001232 Z M 29.014506 8.523102 L 32.26697 8.523102 L 32.917463 7.865761 L 32.917463 5.784184 L 32.26697 5.126844 L 29.014506 5.126844 Z M 37.381898 13.001232 L 37.381898 11.994679 L 38.463771 11.994679 L 38.463771 5.16108 L 37.381898 5.16108 L 37.381898 4.154528 L 40.634363 4.154528 L 40.634363 5.16108 L 39.552491 5.16108 L 39.552491 11.994679 L 40.634363 11.994679 L 40.634363 13.001232 Z M 45.085104 13.001232 L 43.825202 11.74133 L 43.825202 5.41443 L 45.085104 4.154528 L 49.083923 4.154528 L 50.302741 5.380194 L 49.611165 6.085465 L 48.645696 5.126844 L 45.578109 5.126844 L 44.913921 5.784184 L 44.913921 11.371576 L 45.578109 12.028916 L 48.741559 12.028916 L 49.713874 11.0566 L 50.412298 11.761871 L 49.166091 13.001232 Z M 53.445649 13.001232 L 53.445649 4.154528 L 54.541216 4.154528 L 54.541216 8.872313 L 58.718065 4.154528 L 60.012204 4.154528 L 56.698114 7.947929 L 60.073829 13.001232 L 58.765996 13.001232 L 55.944911 8.796993 L 54.541216 10.406107 L 54.541216 13.001232 Z M 67.249793 13.001232 L 67.249793 4.154528 L 68.735656 4.154528 L 71.522504 11.227782 L 74.3162 4.154528 L 75.815757 4.154528 L 75.815757 13.001232 L 74.713343 13.001232 L 74.713343 5.825268 L 71.830633 13.001232 L 71.221223 13.001232 L 68.338513 5.838962 L 68.338513 13.001232 Z M 79.239404 13.001232 L 79.239404 11.583842 L 80.293887 11.583842 L 80.293887 13.001232 Z M 88.140886 13.001232 L 88.140886 4.154528 L 92.81074 4.154528 L 94.056948 5.41443 L 94.056948 8.454629 L 92.81074 9.714531 L 89.229606 9.714531 L 89.229606 13.001232 Z M 89.229606 8.742215 L 92.317735 8.742215 L 92.961381 8.078027 L 92.961381 5.784184 L 92.317735 5.113149 L 89.229606 5.126844 Z M 96.213845 13.001232 L 99.206112 4.154528 L 100.897394 4.154528 L 103.882814 13.001232 L 102.746163 13.001232 L 101.992961 10.700541 L 98.117393 10.700541 L 97.371038 13.001232 Z M 98.439216 9.735072 L 101.677985 9.735072 L 100.185275 5.18847 L 99.911384 5.18847 Z M 106.724441 13.001232 L 106.724441 4.154528 L 111.565477 4.154528 L 112.811685 5.41443 L 112.811685 8.235515 L 111.565477 9.495417 L 111.531241 9.495417 L 113.12666 13.001232 L 111.914689 13.001232 L 110.339812 9.495417 L 107.820008 9.495417 L 107.820008 13.001232 Z M 107.820008 8.523102 L 111.072472 8.523102 L 111.722965 7.865761 L 111.722965 5.784184 L 111.072472 5.126844 L 107.820008 5.126844 Z M 116.187401 13.001232 L 116.187401 11.994679 L 117.269273 11.994679 L 117.269273 5.16108 L 116.187401 5.16108 L 116.187401 4.154528 L 119.439865 4.154528 L 119.439865 5.16108 L 118.357993 5.16108 L 118.357993 11.994679 L 119.439865 11.994679 L 119.439865 13.001232 Z M 122.870359 13.001232 L 122.870359 11.994679 L 127.225238 11.994679 L 127.868883 11.330492 L 127.868883 9.570737 L 127.225238 8.90655 L 123.801591 8.90655 L 122.555384 7.660343 L 122.555384 5.41443 L 123.801591 4.154528 L 128.512529 4.154528 L 128.512529 5.16108 L 124.294596 5.16108 L 123.637256 5.825268 L 123.650951 7.283741 L 124.294596 7.947929 L 127.718243 7.947929 L 128.96445 9.207831 L 128.96445 11.74133 L 127.718243 13.001232 Z M 122.870359 13.001232 " stroke="rgb(0%, 0%, 0%)" stroke-width="0.45" stroke-opacity="1" stroke-miterlimit="4"/></g><g fill="rgb(100%, 0%, 0%)" fill-opacity="1"><g transform="translate(1.253989, 36.283482)"><g><path d="M 1.25 0 L 0.5 -0.765625 L 0.5 -4.59375 L 1.25 -5.359375 L 3.796875 -5.359375 L 4.546875 -4.609375 L 4.125 -4.1875 L 3.53125 -4.765625 L 1.5625 -4.765625 L 1.15625 -4.359375 L 1.15625 -0.984375 L 1.5625 -0.59375 L 3.15625 -0.59375 L 3.984375 -1.359375 L 3.984375 -2.234375 L 2.75 -2.234375 L 2.75 -2.8125 L 4.546875 -2.8125 L 4.546875 0 L 3.984375 0 L 3.984375 -0.625 L 3.328125 0 Z M 1.25 0 "/></g></g></g><g fill="rgb(100%, 0%, 0%)" fill-opacity="1"><g transform="translate(6.424378, 36.283482)"><g><path d="M 0.109375 0 L 1.90625 -5.359375 L 2.9375 -5.359375 L 4.75 0 L 4.046875 0 L 3.59375 -1.390625 L 1.25 -1.390625 L 0.796875 0 Z M 1.453125 -1.96875 L 3.40625 -1.96875 L 2.5 -4.734375 L 2.34375 -4.734375 Z M 1.453125 -1.96875 "/></g></g></g><g fill="rgb(100%, 0%, 0%)" fill-opacity="1"><g transform="translate(11.274802, 36.283482)"><g><path d="M 0.625 0 L 0.625 -5.359375 L 1.53125 -5.359375 L 3.21875 -1.078125 L 4.90625 -5.359375 L 5.8125 -5.359375 L 5.8125 0 L 5.15625 0 L 5.15625 -4.34375 L 3.40625 0 L 3.03125 0 L 1.296875 -4.34375 L 1.296875 0 Z M 0.625 0 "/></g></g></g><g fill="rgb(100%, 0%, 0%)" fill-opacity="1"><g transform="translate(17.725063, 36.283482)"><g><path d="M 0.625 0 L 0.625 -5.359375 L 4.15625 -5.359375 L 4.15625 -4.75 L 1.296875 -4.75 L 1.296875 -3.109375 L 3.859375 -3.109375 L 3.859375 -2.515625 L 1.296875 -2.515625 L 1.296875 -0.609375 L 4.15625 -0.609375 L 4.15625 0 Z M 0.625 0 "/></g></g></g><g fill="rgb(100%, 0%, 0%)" fill-opacity="1"><g transform="translate(22.270057, 36.283482)"><g><path d="M 0.625 0 L 0.625 -5.359375 L 3.453125 -5.359375 L 4.21875 -4.59375 L 4.21875 -2.75 L 3.453125 -1.984375 L 1.296875 -1.984375 L 1.296875 0 Z M 1.296875 -2.578125 L 3.15625 -2.578125 L 3.546875 -2.984375 L 3.546875 -4.359375 L 3.15625 -4.78125 L 1.296875 -4.765625 Z M 1.296875 -2.578125 "/></g></g></g><g fill="rgb(100%, 0%, 0%)" fill-opacity="1"><g transform="translate(26.705976, 36.283482)"><g><path d="M 0.625 0 L 0.625 -5.359375 L 1.296875 -5.359375 L 1.296875 -0.609375 L 3.984375 -0.609375 L 3.984375 0 Z M 0.625 0 "/></g></g></g><g fill="rgb(100%, 0%, 0%)" fill-opacity="1"><g transform="translate(30.771027, 36.283482)"><g><path d="M 0.109375 0 L 1.90625 -5.359375 L 2.9375 -5.359375 L 4.75 0 L 4.046875 0 L 3.59375 -1.390625 L 1.25 -1.390625 L 0.796875 0 Z M 1.453125 -1.96875 L 3.40625 -1.96875 L 2.5 -4.734375 L 2.34375 -4.734375 Z M 1.453125 -1.96875 "/></g></g></g><g fill="rgb(100%, 0%, 0%)" fill-opacity="1"><g transform="translate(35.621451, 36.283482)"><g><path d="M 1.96875 0 L 1.96875 -2.140625 L 0.09375 -5.359375 L 0.84375 -5.359375 L 2.21875 -2.90625 L 2.375 -2.90625 L 3.75 -5.359375 L 4.5 -5.359375 L 2.625 -2.140625 L 2.625 0 Z M 1.96875 0 "/></g></g></g><g fill="rgb(100%, 0%, 0%)" fill-opacity="1"><g transform="translate(40.224626, 36.283482)"><g/></g></g><g fill="rgb(100%, 0%, 0%)" fill-opacity="1"><g transform="translate(41.839008, 36.283482)"><g><path d="M 0.625 0 L 0.625 -5.359375 L 4.15625 -5.359375 L 4.15625 -4.75 L 1.296875 -4.75 L 1.296875 -3.109375 L 3.859375 -3.109375 L 3.859375 -2.515625 L 1.296875 -2.515625 L 1.296875 -0.609375 L 4.15625 -0.609375 L 4.15625 0 Z M 0.625 0 "/></g></g></g><g fill="rgb(100%, 0%, 0%)" fill-opacity="1"><g transform="translate(46.384002, 36.283482)"><g><path d="M 0.625 0 L 0.625 -5.359375 L 1.53125 -5.359375 L 3.921875 -1.046875 L 3.921875 -5.359375 L 4.578125 -5.359375 L 4.578125 0 L 3.796875 0 L 1.453125 -4.234375 L 1.296875 -4.234375 L 1.296875 0 Z M 0.625 0 "/></g></g></g><g fill="rgb(100%, 0%, 0%)" fill-opacity="1"><g transform="translate(51.605295, 36.283482)"><g><path d="M 1.25 0 L 0.5 -0.765625 L 0.5 -4.59375 L 1.25 -5.359375 L 3.796875 -5.359375 L 4.546875 -4.609375 L 4.125 -4.1875 L 3.53125 -4.765625 L 1.5625 -4.765625 L 1.15625 -4.359375 L 1.15625 -0.984375 L 1.5625 -0.59375 L 3.15625 -0.59375 L 3.984375 -1.359375 L 3.984375 -2.234375 L 2.75 -2.234375 L 2.75 -2.8125 L 4.546875 -2.8125 L 4.546875 0 L 3.984375 0 L 3.984375 -0.625 L 3.328125 0 Z M 1.25 0 "/></g></g></g><g fill="rgb(100%, 0%, 0%)" fill-opacity="1"><g transform="translate(56.775684, 36.283482)"><g><path d="M 0.453125 0 L 0.453125 -0.609375 L 1.109375 -0.609375 L 1.109375 -4.75 L 0.453125 -4.75 L 0.453125 -5.359375 L 2.421875 -5.359375 L 2.421875 -4.75 L 1.765625 -4.75 L 1.765625 -0.609375 L 2.421875 -0.609375 L 2.421875 0 Z M 0.453125 0 "/></g></g></g><g fill="rgb(100%, 0%, 0%)" fill-opacity="1"><g transform="translate(59.648125, 36.283482)"><g><path d="M 0.625 0 L 0.625 -5.359375 L 1.53125 -5.359375 L 3.921875 -1.046875 L 3.921875 -5.359375 L 4.578125 -5.359375 L 4.578125 0 L 3.796875 0 L 1.453125 -4.234375 L 1.296875 -4.234375 L 1.296875 0 Z M 0.625 0 "/></g></g></g><g fill="rgb(100%, 0%, 0%)" fill-opacity="1"><g transform="translate(64.869418, 36.283482)"><g><path d="M 0.625 0 L 0.625 -5.359375 L 4.15625 -5.359375 L 4.15625 -4.75 L 1.296875 -4.75 L 1.296875 -3.109375 L 3.859375 -3.109375 L 3.859375 -2.515625 L 1.296875 -2.515625 L 1.296875 -0.609375 L 4.15625 -0.609375 L 4.15625 0 Z M 0.625 0 "/></g></g></g><g fill="rgb(100%, 0%, 0%)" fill-opacity="1"><g transform="translate(69.414412, 36.283482)"><g><path d="M 0.625 0 L 0.625 -5.359375 L 4.15625 -5.359375 L 4.15625 -4.75 L 1.296875 -4.75 L 1.296875 -3.109375 L 3.859375 -3.109375 L 3.859375 -2.515625 L 1.296875 -2.515625 L 1.296875 -0.609375 L 4.15625 -0.609375 L 4.15625 0 Z M 0.625 0 "/></g></g></g><g fill="rgb(100%, 0%, 0%)" fill-opacity="1"><g transform="translate(73.959406, 36.283482)"><g><path d="M 0.625 0 L 0.625 -5.359375 L 3.5625 -5.359375 L 4.3125 -4.59375 L 4.3125 -2.890625 L 3.5625 -2.125 L 3.53125 -2.125 L 4.5 0 L 3.765625 0 L 2.8125 -2.125 L 1.296875 -2.125 L 1.296875 0 Z M 1.296875 -2.703125 L 3.265625 -2.703125 L 3.65625 -3.109375 L 3.65625 -4.359375 L 3.265625 -4.765625 L 1.296875 -4.765625 Z M 1.296875 -2.703125 "/></g></g></g><g fill="rgb(0%, 100%, 100%)" fill-opacity="1"><g transform="translate(0.719696, 35.548091)"><g><path d="M 1.25 0 L 0.5 -0.765625 L 0.5 -4.59375 L 1.25 -5.359375 L 3.796875 -5.359375 L 4.546875 -4.609375 L 4.125 -4.1875 L 3.53125 -4.765625 L 1.5625 -4.765625 L 1.15625 -4.359375 L 1.15625 -0.984375 L 1.5625 -0.59375 L 3.15625 -0.59375 L 3.984375 -1.359375 L 3.984375 -2.234375 L 2.75 -2.234375 L 2.75 -2.8125 L 4.546875 -2.8125 L 4.546875 0 L 3.984375 0 L 3.984375 -0.625 L 3.328125 0 Z M 1.25 0 "/></g></g></g><g fill="rgb(0%, 100%, 100%)" fill-opacity="1"><g transform="translate(5.890085, 35.548091)"><g><path d="M 0.109375 0 L 1.90625 -5.359375 L 2.9375 -5.359375 L 4.75 0 L 4.046875 0 L 3.59375 -1.390625 L 1.25 -1.390625 L 0.796875 0 Z M 1.453125 -1.96875 L 3.40625 -1.96875 L 2.5 -4.734375 L 2.34375 -4.734375 Z M 1.453125 -1.96875 "/></g></g></g><g fill="rgb(0%, 100%, 100%)" fill-opacity="1"><g transform="translate(10.740509, 35.548091)"><g><path d="M 0.625 0 L 0.625 -5.359375 L 1.53125 -5.359375 L 3.21875 -1.078125 L 4.90625 -5.359375 L 5.8125 -5.359375 L 5.8125 0 L 5.15625 0 L 5.15625 -4.34375 L 3.40625 0 L 3.03125 0 L 1.296875 -4.34375 L 1.296875 0 Z M 0.625 0 "/></g></g></g><g fill="rgb(0%, 100%, 100%)" fill-opacity="1"><g transform="translate(17.19077, 35.548091)"><g><path d="M 0.625 0 L 0.625 -5.359375 L 4.15625 -5.359375 L 4.15625 -4.75 L 1.296875 -4.75 L 1.296875 -3.109375 L 3.859375 -3.109375 L 3.859375 -2.515625 L 1.296875 -2.515625 L 1.296875 -0.609375 L 4.15625 -0.609375 L 4.15625 0 Z M 0.625 0 "/></g></g></g><g fill="rgb(0%, 100%, 100%)" fill-opacity="1"><g transform="translate(21.735764, 35.548091)"><g><path d="M 0.625 0 L 0.625 -5.359375 L 3.453125 -5.359375 L 4.21875 -4.59375 L 4.21875 -2.75 L 3.453125 -1.984375 L 1.296875 -1.984375 L 1.296875 0 Z M 1.296875 -2.578125 L 3.15625 -2.578125 L 3.546875 -2.984375 L 3.546875 -4.359375 L 3.15625 -4.78125 L 1.296875 -4.765625 Z M 1.296875 -2.578125 "/></g></g></g><g fill="rgb(0%, 100%, 100%)" fill-opacity="1"><g transform="translate(26.171684, 35.548091)"><g><path d="M 0.625 0 L 0.625 -5.359375 L 1.296875 -5.359375 L 1.296875 -0.609375 L 3.984375 -0.609375 L 3.984375 0 Z M 0.625 0 "/></g></g></g><g fill="rgb(0%, 100%, 100%)" fill-opacity="1"><g transform="translate(30.236734, 35.548091)"><g><path d="M 0.109375 0 L 1.90625 -5.359375 L 2.9375 -5.359375 L 4.75 0 L 4.046875 0 L 3.59375 -1.390625 L 1.25 -1.390625 L 0.796875 0 Z M 1.453125 -1.96875 L 3.40625 -1.96875 L 2.5 -4.734375 L 2.34375 -4.734375 Z M 1.453125 -1.96875 "/></g></g></g><g fill="rgb(0%, 100%, 100%)" fill-opacity="1"><g transform="translate(35.087158, 35.548091)"><g><path d="M 1.96875 0 L 1.96875 -2.140625 L 0.09375 -5.359375 L 0.84375 -5.359375 L 2.21875 -2.90625 L 2.375 -2.90625 L 3.75 -5.359375 L 4.5 -5.359375 L 2.625 -2.140625 L 2.625 0 Z M 1.96875 0 "/></g></g></g><g fill="rgb(0%, 100%, 100%)" fill-opacity="1"><g transform="translate(39.690333, 35.548091)"><g/></g></g><g fill="rgb(0%, 100%, 100%)" fill-opacity="1"><g transform="translate(41.304715, 35.548091)"><g><path d="M 0.625 0 L 0.625 -5.359375 L 4.15625 -5.359375 L 4.15625 -4.75 L 1.296875 -4.75 L 1.296875 -3.109375 L 3.859375 -3.109375 L 3.859375 -2.515625 L 1.296875 -2.515625 L 1.296875 -0.609375 L 4.15625 -0.609375 L 4.15625 0 Z M 0.625 0 "/></g></g></g><g fill="rgb(0%, 100%, 100%)" fill-opacity="1"><g transform="translate(45.849709, 35.548091)"><g><path d="M 0.625 0 L 0.625 -5.359375 L 1.53125 -5.359375 L 3.921875 -1.046875 L 3.921875 -5.359375 L 4.578125 -5.359375 L 4.578125 0 L 3.796875 0 L 1.453125 -4.234375 L 1.296875 -4.234375 L 1.296875 0 Z M 0.625 0 "/></g></g></g><g fill="rgb(0%, 100%, 100%)" fill-opacity="1"><g transform="translate(51.071002, 35.548091)"><g><path d="M 1.25 0 L 0.5 -0.765625 L 0.5 -4.59375 L 1.25 -5.359375 L 3.796875 -5.359375 L 4.546875 -4.609375 L 4.125 -4.1875 L 3.53125 -4.765625 L 1.5625 -4.765625 L 1.15625 -4.359375 L 1.15625 -0.984375 L 1.5625 -0.59375 L 3.15625 -0.59375 L 3.984375 -1.359375 L 3.984375 -2.234375 L 2.75 -2.234375 L 2.75 -2.8125 L 4.546875 -2.8125 L 4.546875 0 L 3.984375 0 L 3.984375 -0.625 L 3.328125 0 Z M 1.25 0 "/></g></g></g><g fill="rgb(0%, 100%, 100%)" fill-opacity="1"><g transform="translate(56.241391, 35.548091)"><g><path d="M 0.453125 0 L 0.453125 -0.609375 L 1.109375 -0.609375 L 1.109375 -4.75 L 0.453125 -4.75 L 0.453125 -5.359375 L 2.421875 -5.359375 L 2.421875 -4.75 L 1.765625 -4.75 L 1.765625 -0.609375 L 2.421875 -0.609375 L 2.421875 0 Z M 0.453125 0 "/></g></g></g><g fill="rgb(0%, 100%, 100%)" fill-opacity="1"><g transform="translate(59.113832, 35.548091)"><g><path d="M 0.625 0 L 0.625 -5.359375 L 1.53125 -5.359375 L 3.921875 -1.046875 L 3.921875 -5.359375 L 4.578125 -5.359375 L 4.578125 0 L 3.796875 0 L 1.453125 -4.234375 L 1.296875 -4.234375 L 1.296875 0 Z M 0.625 0 "/></g></g></g><g fill="rgb(0%, 100%, 100%)" fill-opacity="1"><g transform="translate(64.335125, 35.548091)"><g><path d="M 0.625 0 L 0.625 -5.359375 L 4.15625 -5.359375 L 4.15625 -4.75 L 1.296875 -4.75 L 1.296875 -3.109375 L 3.859375 -3.109375 L 3.859375 -2.515625 L 1.296875 -2.515625 L 1.296875 -0.609375 L 4.15625 -0.609375 L 4.15625 0 Z M 0.625 0 "/></g></g></g><g fill="rgb(0%, 100%, 100%)" fill-opacity="1"><g transform="translate(68.880119, 35.548091)"><g><path d="M 0.625 0 L 0.625 -5.359375 L 4.15625 -5.359375 L 4.15625 -4.75 L 1.296875 -4.75 L 1.296875 -3.109375 L 3.859375 -3.109375 L 3.859375 -2.515625 L 1.296875 -2.515625 L 1.296875 -0.609375 L 4.15625 -0.609375 L 4.15625 0 Z M 0.625 0 "/></g></g></g><g fill="rgb(0%, 100%, 100%)" fill-opacity="1"><g transform="translate(73.425113, 35.548091)"><g><path d="M 0.625 0 L 0.625 -5.359375 L 3.5625 -5.359375 L 4.3125 -4.59375 L 4.3125 -2.890625 L 3.5625 -2.125 L 3.53125 -2.125 L 4.5 0 L 3.765625 0 L 2.8125 -2.125 L 1.296875 -2.125 L 1.296875 0 Z M 1.296875 -2.703125 L 3.265625 -2.703125 L 3.65625 -3.109375 L 3.65625 -4.359375 L 3.265625 -4.765625 L 1.296875 -4.765625 Z M 1.296875 -2.703125 "/></g></g></g><g fill="rgb(0%, 0%, 0%)" fill-opacity="1"><g transform="translate(0.986842, 35.915786)"><g><path d="M 1.25 0 L 0.5 -0.765625 L 0.5 -4.59375 L 1.25 -5.359375 L 3.796875 -5.359375 L 4.546875 -4.609375 L 4.125 -4.1875 L 3.53125 -4.765625 L 1.5625 -4.765625 L 1.15625 -4.359375 L 1.15625 -0.984375 L 1.5625 -0.59375 L 3.15625 -0.59375 L 3.984375 -1.359375 L 3.984375 -2.234375 L 2.75 -2.234375 L 2.75 -2.8125 L 4.546875 -2.8125 L 4.546875 0 L 3.984375 0 L 3.984375 -0.625 L 3.328125 0 Z M 1.25 0 "/></g></g></g><g fill="rgb(0%, 0%, 0%)" fill-opacity="1"><g transform="translate(6.157232, 35.915786)"><g><path d="M 0.109375 0 L 1.90625 -5.359375 L 2.9375 -5.359375 L 4.75 0 L 4.046875 0 L 3.59375 -1.390625 L 1.25 -1.390625 L 0.796875 0 Z M 1.453125 -1.96875 L 3.40625 -1.96875 L 2.5 -4.734375 L 2.34375 -4.734375 Z M 1.453125 -1.96875 "/></g></g></g><g fill="rgb(0%, 0%, 0%)" fill-opacity="1"><g transform="translate(11.007655, 35.915786)"><g><path d="M 0.625 0 L 0.625 -5.359375 L 1.53125 -5.359375 L 3.21875 -1.078125 L 4.90625 -5.359375 L 5.8125 -5.359375 L 5.8125 0 L 5.15625 0 L 5.15625 -4.34375 L 3.40625 0 L 3.03125 0 L 1.296875 -4.34375 L 1.296875 0 Z M 0.625 0 "/></g></g></g><g fill="rgb(0%, 0%, 0%)" fill-opacity="1"><g transform="translate(17.457916, 35.915786)"><g><path d="M 0.625 0 L 0.625 -5.359375 L 4.15625 -5.359375 L 4.15625 -4.75 L 1.296875 -4.75 L 1.296875 -3.109375 L 3.859375 -3.109375 L 3.859375 -2.515625 L 1.296875 -2.515625 L 1.296875 -0.609375 L 4.15625 -0.609375 L 4.15625 0 Z M 0.625 0 "/></g></g></g><g fill="rgb(0%, 0%, 0%)" fill-opacity="1"><g transform="translate(22.002911, 35.915786)"><g><path d="M 0.625 0 L 0.625 -5.359375 L 3.453125 -5.359375 L 4.21875 -4.59375 L 4.21875 -2.75 L 3.453125 -1.984375 L 1.296875 -1.984375 L 1.296875 0 Z M 1.296875 -2.578125 L 3.15625 -2.578125 L 3.546875 -2.984375 L 3.546875 -4.359375 L 3.15625 -4.78125 L 1.296875 -4.765625 Z M 1.296875 -2.578125 "/></g></g></g><g fill="rgb(0%, 0%, 0%)" fill-opacity="1"><g transform="translate(26.43883, 35.915786)"><g><path d="M 0.625 0 L 0.625 -5.359375 L 1.296875 -5.359375 L 1.296875 -0.609375 L 3.984375 -0.609375 L 3.984375 0 Z M 0.625 0 "/></g></g></g><g fill="rgb(0%, 0%, 0%)" fill-opacity="1"><g transform="translate(30.503881, 35.915786)"><g><path d="M 0.109375 0 L 1.90625 -5.359375 L 2.9375 -5.359375 L 4.75 0 L 4.046875 0 L 3.59375 -1.390625 L 1.25 -1.390625 L 0.796875 0 Z M 1.453125 -1.96875 L 3.40625 -1.96875 L 2.5 -4.734375 L 2.34375 -4.734375 Z M 1.453125 -1.96875 "/></g></g></g><g fill="rgb(0%, 0%, 0%)" fill-opacity="1"><g transform="translate(35.354304, 35.915786)"><g><path d="M 1.96875 0 L 1.96875 -2.140625 L 0.09375 -5.359375 L 0.84375 -5.359375 L 2.21875 -2.90625 L 2.375 -2.90625 L 3.75 -5.359375 L 4.5 -5.359375 L 2.625 -2.140625 L 2.625 0 Z M 1.96875 0 "/></g></g></g><g fill="rgb(0%, 0%, 0%)" fill-opacity="1"><g transform="translate(39.957479, 35.915786)"><g/></g></g><g fill="rgb(0%, 0%, 0%)" fill-opacity="1"><g transform="translate(41.571861, 35.915786)"><g><path d="M 0.625 0 L 0.625 -5.359375 L 4.15625 -5.359375 L 4.15625 -4.75 L 1.296875 -4.75 L 1.296875 -3.109375 L 3.859375 -3.109375 L 3.859375 -2.515625 L 1.296875 -2.515625 L 1.296875 -0.609375 L 4.15625 -0.609375 L 4.15625 0 Z M 0.625 0 "/></g></g></g><g fill="rgb(0%, 0%, 0%)" fill-opacity="1"><g transform="translate(46.116856, 35.915786)"><g><path d="M 0.625 0 L 0.625 -5.359375 L 1.53125 -5.359375 L 3.921875 -1.046875 L 3.921875 -5.359375 L 4.578125 -5.359375 L 4.578125 0 L 3.796875 0 L 1.453125 -4.234375 L 1.296875 -4.234375 L 1.296875 0 Z M 0.625 0 "/></g></g></g><g fill="rgb(0%, 0%, 0%)" fill-opacity="1"><g transform="translate(51.338148, 35.915786)"><g><path d="M 1.25 0 L 0.5 -0.765625 L 0.5 -4.59375 L 1.25 -5.359375 L 3.796875 -5.359375 L 4.546875 -4.609375 L 4.125 -4.1875 L 3.53125 -4.765625 L 1.5625 -4.765625 L 1.15625 -4.359375 L 1.15625 -0.984375 L 1.5625 -0.59375 L 3.15625 -0.59375 L 3.984375 -1.359375 L 3.984375 -2.234375 L 2.75 -2.234375 L 2.75 -2.8125 L 4.546875 -2.8125 L 4.546875 0 L 3.984375 0 L 3.984375 -0.625 L 3.328125 0 Z M 1.25 0 "/></g></g></g><g fill="rgb(0%, 0%, 0%)" fill-opacity="1"><g transform="translate(56.508538, 35.915786)"><g><path d="M 0.453125 0 L 0.453125 -0.609375 L 1.109375 -0.609375 L 1.109375 -4.75 L 0.453125 -4.75 L 0.453125 -5.359375 L 2.421875 -5.359375 L 2.421875 -4.75 L 1.765625 -4.75 L 1.765625 -0.609375 L 2.421875 -0.609375 L 2.421875 0 Z M 0.453125 0 "/></g></g></g><g fill="rgb(0%, 0%, 0%)" fill-opacity="1"><g transform="translate(59.380979, 35.915786)"><g><path d="M 0.625 0 L 0.625 -5.359375 L 1.53125 -5.359375 L 3.921875 -1.046875 L 3.921875 -5.359375 L 4.578125 -5.359375 L 4.578125 0 L 3.796875 0 L 1.453125 -4.234375 L 1.296875 -4.234375 L 1.296875 0 Z M 0.625 0 "/></g></g></g><g fill="rgb(0%, 0%, 0%)" fill-opacity="1"><g transform="translate(64.602271, 35.915786)"><g><path d="M 0.625 0 L 0.625 -5.359375 L 4.15625 -5.359375 L 4.15625 -4.75 L 1.296875 -4.75 L 1.296875 -3.109375 L 3.859375 -3.109375 L 3.859375 -2.515625 L 1.296875 -2.515625 L 1.296875 -0.609375 L 4.15625 -0.609375 L 4.15625 0 Z M 0.625 0 "/></g></g></g><g fill="rgb(0%, 0%, 0%)" fill-opacity="1"><g transform="translate(69.147266, 35.915786)"><g><path d="M 0.625 0 L 0.625 -5.359375 L 4.15625 -5.359375 L 4.15625 -4.75 L 1.296875 -4.75 L 1.296875 -3.109375 L 3.859375 -3.109375 L 3.859375 -2.515625 L 1.296875 -2.515625 L 1.296875 -0.609375 L 4.15625 -0.609375 L 4.15625 0 Z M 0.625 0 "/></g></g></g><g fill="rgb(0%, 0%, 0%)" fill-opacity="1"><g transform="translate(73.69226, 35.915786)"><g><path d="M 0.625 0 L 0.625 -5.359375 L 3.5625 -5.359375 L 4.3125 -4.59375 L 4.3125 -2.890625 L 3.5625 -2.125 L 3.53125 -2.125 L 4.5 0 L 3.765625 0 L 2.8125 -2.125 L 1.296875 -2.125 L 1.296875 0 Z M 1.296875 -2.703125 L 3.265625 -2.703125 L 3.65625 -3.109375 L 3.65625 -4.359375 L 3.265625 -4.765625 L 1.296875 -4.765625 Z M 1.296875 -2.703125 "/></g></g></g></svg>